<svg xmlns="http://www.w3.org/2000/svg" width="70.681" height="75" viewBox="0 0 70.681 75"><defs><style>.a{fill:#a6aed8;}</style></defs><g transform="translate(-4567.768 -4782)"><path class="a" d="M38.647,62.052,30.138,74.987a6.847,6.847,0,0,1-4.354,2.932,6.615,6.615,0,0,1-1.286.128,6.272,6.272,0,0,1-3.531-1.079A6.392,6.392,0,0,1,18.2,72.63a6.519,6.519,0,0,1,1.254-4.985l11.7-15.18a1.6,1.6,0,0,1,2.533,1.957L21.988,69.6a3.292,3.292,0,0,0,.8,4.73,3.148,3.148,0,0,0,2.4.463,3.627,3.627,0,0,0,2.309-1.55L35.97,60.295a1.6,1.6,0,1,1,2.669,1.758ZM72.267,4.783c-2.98-2.125-7.031-2.285-11.393-.439a27.212,27.212,0,0,0-11.145,9.38C45.685,19.4,43.792,25.892,44.671,31.1a7.4,7.4,0,0,1-.312,3.6,1.6,1.6,0,1,0,3.028,1.031,10.61,10.61,0,0,0,.439-5.153c-.727-4.33,1-10.075,4.506-15A23.969,23.969,0,0,1,62.1,7.292c3.308-1.39,6.248-1.358,8.293.1s3.044,4.226,2.8,7.806a23.969,23.969,0,0,1-4.642,11.936c-3.475,4.93-8.381,8.437-12.711,9.156a10.626,10.626,0,0,0-4.65,2.029,11.592,11.592,0,0,0-1.063.919,1.6,1.6,0,0,0,2.229,2.285,8.277,8.277,0,0,1,.8-.663,7.414,7.414,0,0,1,3.236-1.422c5.217-.871,10.738-4.794,14.789-10.45a27.22,27.22,0,0,0,5.233-13.582C76.7,10.687,75.231,6.908,72.267,4.783ZM37.392,33.841a.431.431,0,0,1,0-.423,9.915,9.915,0,0,0-.991-9.763L22.132,3.745a1.6,1.6,0,1,0-2.6,1.862l14.253,19.91a6.7,6.7,0,0,1,.671,6.607,3.611,3.611,0,0,0,.407,3.675L61.233,69.9a3.076,3.076,0,1,1-4.993,3.579L32.319,37.6a3.627,3.627,0,0,0-3.356-1.6,6.7,6.7,0,0,1-6.048-2.748L8.686,13.4a1.6,1.6,0,1,0-2.6,1.862l14.245,19.9a9.9,9.9,0,0,0,8.948,4.067.431.431,0,0,1,.4.152L53.571,75.243a6.224,6.224,0,0,0,4.091,2.7,6.344,6.344,0,0,0,1.143.1A6.272,6.272,0,0,0,63.75,67.941Zm-10.211-4.3a1.6,1.6,0,0,0,1.31-2.517L15.469,8.426a1.6,1.6,0,1,0-2.621,1.83l13.023,18.6A1.6,1.6,0,0,0,27.182,29.543Z" transform="translate(4562 4778.953)"/></g></svg>