<svg xmlns="http://www.w3.org/2000/svg" width="75.484" height="75.484" viewBox="0 0 75.484 75.484"><defs><style>.a{fill:#f088b6;}</style></defs><rect class="a" width="2" height="2" transform="translate(13 5.484)"/><rect class="a" width="3" height="2" transform="translate(35 5.484)"/><rect class="a" width="3" height="2" transform="translate(30 5.484)"/><rect class="a" width="3" height="2" transform="translate(25 5.484)"/><rect class="a" width="2" height="3" transform="translate(13 18.484)"/><rect class="a" width="2" height="3" transform="translate(13 32.484)"/><path class="a" d="M71.194,22.129H47.29V20.871h3.774a1.258,1.258,0,0,0,1.258-1.258V9.548A1.258,1.258,0,0,0,51.065,8.29H47.29V4.516A2.516,2.516,0,0,0,44.774,2H9.548A2.516,2.516,0,0,0,7.032,4.516V8.29H3.258A1.258,1.258,0,0,0,2,9.548V19.613a1.258,1.258,0,0,0,1.258,1.258H7.032v2.516H3.258A1.258,1.258,0,0,0,2,24.645V34.71a1.258,1.258,0,0,0,1.258,1.258H7.032v3.774a2.516,2.516,0,0,0,2.516,2.516H22.129V58.613a6.3,6.3,0,0,0,6.29,6.29H42.032l-.839,5.032H39.742a3.774,3.774,0,0,0,0,7.548H59.871a3.774,3.774,0,0,0,0-7.548H58.42L57.581,64.9H71.194a6.3,6.3,0,0,0,6.29-6.29V28.419A6.3,6.3,0,0,0,71.194,22.129Zm3.774,6.29V54.839H24.645V28.419a3.774,3.774,0,0,1,3.774-3.774H71.194A3.774,3.774,0,0,1,74.968,28.419Zm-46.548-6.29A6.29,6.29,0,0,0,22.662,25.9H9.548V18.355H44.774v3.774ZM9.548,4.516H44.774v7.548H9.548ZM4.516,18.355V10.806H7.032v1.258a2.516,2.516,0,0,0,2.516,2.516H44.774a2.516,2.516,0,0,0,2.516-2.516V10.806h2.516v7.548H47.29a2.516,2.516,0,0,0-2.516-2.516H9.548a2.516,2.516,0,0,0-2.516,2.516ZM7.032,32.194v1.258H4.516V25.9H7.032a2.516,2.516,0,0,0,2.516,2.516H22.129v1.258H9.548A2.516,2.516,0,0,0,7.032,32.194Zm2.516,7.548V32.194H22.129v7.548ZM61.129,73.71a1.258,1.258,0,0,1-1.258,1.258H39.742a1.258,1.258,0,0,1,0-2.516H59.871A1.258,1.258,0,0,1,61.129,73.71ZM55.87,69.936H43.743l.839-5.032H55.031Zm15.323-7.548H28.419a3.774,3.774,0,0,1-3.774-3.774V57.355H74.968v1.258a3.774,3.774,0,0,1-3.774,3.774Z" transform="translate(-2 -2)"/><rect class="a" width="3" height="3" transform="translate(65 56.484)"/><path class="a" d="M32.065,46.129A10.076,10.076,0,0,0,42.129,36.065a1.258,1.258,0,0,0-1.258-1.258H33.323V27.258A1.258,1.258,0,0,0,32.065,26a10.065,10.065,0,0,0,0,20.129ZM30.806,28.621v7.444a1.258,1.258,0,0,0,1.258,1.258h7.444a7.548,7.548,0,1,1-8.7-8.7Z" transform="translate(3.161 4.194)"/><path class="a" d="M33.258,34.323h8.806a1.258,1.258,0,0,0,1.258-1.258A10.076,10.076,0,0,0,33.258,23,1.258,1.258,0,0,0,32,24.258v8.806A1.258,1.258,0,0,0,33.258,34.323Zm1.258-8.7A7.57,7.57,0,0,1,40.7,31.806H34.516Z" transform="translate(5.742 3.419)"/><rect class="a" width="3" height="3" transform="translate(54 27.484)"/><rect class="a" width="10" height="3" transform="translate(59 27.484)"/><rect class="a" width="15" height="3" transform="translate(54 32.484)"/><rect class="a" width="15" height="3" transform="translate(54 37.484)"/><path class="a" d="M48.957,40.219,51.841,43.1a1.258,1.258,0,0,0,1.779,0l5.032-5.032-1.779-1.779-4.143,4.143-2.885-2.885a1.258,1.258,0,0,0-1.779,0l-3.774,3.774L46.072,43.1Z" transform="translate(8.914 6.85)"/></svg>