<svg xmlns="http://www.w3.org/2000/svg" width="44" height="44" viewBox="0 0 44 44"><defs><style>.a{fill:#f088b6;}</style></defs><g transform="translate(838 -2929)"><g transform="translate(-838 2929)"><rect class="a" width="2" height="1" transform="translate(7 3)"/><rect class="a" width="1" height="1" transform="translate(21 3)"/><rect class="a" width="1" height="1" transform="translate(18 3)"/><rect class="a" width="1" height="1" transform="translate(15 3)"/><rect class="a" width="2" height="1" transform="translate(7 11)"/><rect class="a" width="2" height="2" transform="translate(7 19)"/><path class="a" d="M42.333,13.733H28.4V13h2.2a.733.733,0,0,0,.733-.733V6.4a.733.733,0,0,0-.733-.733H28.4v-2.2A1.467,1.467,0,0,0,26.933,2H6.4A1.467,1.467,0,0,0,4.933,3.467v2.2h-2.2A.733.733,0,0,0,2,6.4v5.867A.733.733,0,0,0,2.733,13h2.2v1.467h-2.2A.733.733,0,0,0,2,15.2v5.867a.733.733,0,0,0,.733.733h2.2V24A1.467,1.467,0,0,0,6.4,25.467h7.333V35A3.671,3.671,0,0,0,17.4,38.667h7.935L24.846,41.6H24A2.2,2.2,0,0,0,24,46H35.733a2.2,2.2,0,1,0,0-4.4h-.846L34.4,38.667h7.935A3.671,3.671,0,0,0,46,35V17.4A3.671,3.671,0,0,0,42.333,13.733Zm2.2,3.667V32.8H15.2V17.4a2.2,2.2,0,0,1,2.2-2.2H42.333A2.2,2.2,0,0,1,44.533,17.4ZM17.4,13.733a3.667,3.667,0,0,0-3.356,2.2H6.4v-4.4H26.933v2.2ZM6.4,3.467H26.933v4.4H6.4ZM3.467,11.533v-4.4H4.933v.733A1.467,1.467,0,0,0,6.4,9.333H26.933A1.467,1.467,0,0,0,28.4,7.867V7.133h1.467v4.4H28.4a1.467,1.467,0,0,0-1.467-1.467H6.4a1.467,1.467,0,0,0-1.467,1.467ZM4.933,19.6v.733H3.467v-4.4H4.933A1.467,1.467,0,0,0,6.4,17.4h7.333v.733H6.4A1.467,1.467,0,0,0,4.933,19.6ZM6.4,24V19.6h7.333V24ZM36.467,43.8a.733.733,0,0,1-.733.733H24a.733.733,0,1,1,0-1.467H35.733A.733.733,0,0,1,36.467,43.8ZM33.4,41.6H26.332l.489-2.933h6.091Zm8.932-4.4H17.4A2.2,2.2,0,0,1,15.2,35v-.733H44.533V35a2.2,2.2,0,0,1-2.2,2.2Z" transform="translate(-2 -2)"/><rect class="a" width="2" height="1" transform="translate(38 33)"/><path class="a" d="M27.867,37.733a5.873,5.873,0,0,0,5.867-5.867A.733.733,0,0,0,33,31.133H28.6v-4.4A.733.733,0,0,0,27.867,26a5.867,5.867,0,1,0,0,11.733Zm-.733-10.206v4.339a.733.733,0,0,0,.733.733h4.339a4.4,4.4,0,1,1-5.072-5.072Z" transform="translate(-7.333 -8.4)"/><path class="a" d="M32.733,29.6h5.133a.733.733,0,0,0,.733-.733A5.873,5.873,0,0,0,32.733,23a.733.733,0,0,0-.733.733v5.133A.733.733,0,0,0,32.733,29.6Zm.733-5.072a4.412,4.412,0,0,1,3.606,3.606H33.467Z" transform="translate(-10 -7.6)"/><rect class="a" width="1" height="2" transform="translate(32 16)"/><rect class="a" width="6" height="2" transform="translate(34 16)"/><rect class="a" width="8" height="2" transform="translate(32 19)"/><rect class="a" width="8" height="1" transform="translate(32 22)"/><path class="a" d="M47.011,38.582l1.682,1.682a.733.733,0,0,0,1.037,0l2.933-2.933-1.037-1.037-2.415,2.415L47.53,37.026a.733.733,0,0,0-1.037,0l-2.2,2.2,1.037,1.037Z" transform="translate(-13.278 -11.145)"/></g></g></svg>