<svg xmlns="http://www.w3.org/2000/svg" width="72.947" height="75.3" viewBox="0 0 72.947 75.3"><defs><style>.a{fill:#a6aed8;}</style></defs><g transform="translate(-4547 -4874)"><g transform="translate(4547 4874)"><path class="a" d="M36.3,18.786v.039a1.177,1.177,0,1,0,2.353,0v-.039A3.9,3.9,0,0,0,39.5,11.2l-.855-.285V7.137a1.539,1.539,0,0,1,1.177,1.481v.795a1.177,1.177,0,0,0,2.353,0V8.618a3.9,3.9,0,0,0-3.53-3.873V4.706a1.177,1.177,0,0,0-2.353,0v.039a3.9,3.9,0,0,0-.855,7.584l.855.285v3.781a1.539,1.539,0,0,1-1.177-1.481v-.795a1.177,1.177,0,1,0-2.353,0v.795a3.9,3.9,0,0,0,3.53,3.873Zm-.111-8.69A1.556,1.556,0,0,1,35.12,8.618,1.539,1.539,0,0,1,36.3,7.137v3Zm2.574,3.339a1.557,1.557,0,0,1,1.066,1.478,1.539,1.539,0,0,1-1.177,1.481v-3Zm-1.287,10.1A11.766,11.766,0,1,0,25.708,11.766,11.766,11.766,0,0,0,37.473,23.531Zm0-21.178a9.412,9.412,0,1,1-9.412,9.412,9.412,9.412,0,0,1,9.412-9.412Zm35.3,64.711H69.24V62.358a1.177,1.177,0,0,0-1.177-1.177H65.711V56.475A1.177,1.177,0,0,0,64.534,55.3H63.358V36.473h1.177A1.177,1.177,0,0,0,65.711,35.3V30.591h3.53a1.177,1.177,0,0,0,1.177-1.177V21.178a1.177,1.177,0,0,0-.7-1.075L53.105,12.726a1.177,1.177,0,1,0-.956,2.151l15.914,7.066v6.295H6.883V21.943L22.8,14.876a1.177,1.177,0,1,0-.955-2.151L5.229,20.1a1.177,1.177,0,0,0-.7,1.075v8.236a1.177,1.177,0,0,0,1.177,1.177h3.53V35.3a1.177,1.177,0,0,0,1.177,1.177h1.177V55.3H10.412a1.177,1.177,0,0,0-1.177,1.177v4.706H6.883a1.177,1.177,0,0,0-1.177,1.177v4.706H2.177A1.177,1.177,0,0,0,1,68.24v5.883A1.177,1.177,0,0,0,2.177,75.3H72.77a1.177,1.177,0,0,0,1.177-1.177V68.24A1.177,1.177,0,0,0,72.77,67.064ZM44.533,61.181V56.475A1.177,1.177,0,0,0,43.356,55.3H42.18V36.473h1.177A1.177,1.177,0,0,0,44.533,35.3V30.591h7.059V35.3a1.177,1.177,0,0,0,1.177,1.177h1.177V55.3H52.769a1.177,1.177,0,0,0-1.177,1.177v4.706Zm-21.178,0V56.475A1.177,1.177,0,0,0,22.178,55.3H21V36.473h1.177A1.177,1.177,0,0,0,23.355,35.3V30.591h7.059V35.3a1.177,1.177,0,0,0,1.177,1.177h1.177V55.3H31.591a1.177,1.177,0,0,0-1.177,1.177v4.706ZM39.826,55.3H35.12V36.473h4.706Zm-7.059,2.353H42.18v3.53H32.767Zm21.178,0h9.412v3.53H53.945ZM61,55.3H56.3V36.473H61Zm2.353-24.708v3.53H53.945v-3.53Zm-21.178,0v3.53H32.767v-3.53ZM21,30.591v3.53H11.589v-3.53Zm-7.059,5.883h4.706V55.3H13.942ZM11.589,57.651H21v3.53H11.589Zm-3.53,5.883H66.887v3.53H8.059Zm63.534,9.412H3.353v-3.53h68.24Z" transform="translate(-1)"/></g></g></svg>