<svg xmlns="http://www.w3.org/2000/svg" width="75.784" height="75.784" viewBox="0 0 75.784 75.784"><defs><style>.a{fill:#f088b6;}</style></defs><g transform="translate(1105 -2929)"><g transform="translate(-1105 2929)"><path class="a" d="M52.82,18.481a1.263,1.263,0,0,0,.61-2.368L36.416,6.726a1.263,1.263,0,0,0-1.22,0L18.183,16.113a1.263,1.263,0,0,0,.61,2.368ZM33.28,13.429a2.526,2.526,0,1,1,2.526,2.526A2.526,2.526,0,0,1,33.28,13.429Zm6.876,2.526a4.777,4.777,0,0,0,.447-4.034l7.312,4.034Zm-9.15-4.034a4.769,4.769,0,0,0,.45,4.034H23.7Z" transform="translate(2.086 -0.798)"/><path class="a" d="M76.521,70.205H72.731V66.416a1.263,1.263,0,0,0-1.263-1.263H68.942V33.577a1.263,1.263,0,1,0-2.526,0V65.153H58.838V29.787h2.526V61.364a1.263,1.263,0,0,0,2.526,0V29.787h7.578a1.263,1.263,0,0,0,1.263-1.263V24.735h3.789a1.263,1.263,0,0,0,.61-2.368L40.5,2.158a1.255,1.255,0,0,0-1.22,0L2.653,22.367a1.263,1.263,0,0,0,.61,2.368H7.052v3.789a1.263,1.263,0,0,0,1.263,1.263h2.526v10.1a1.263,1.263,0,1,0,2.526,0v-10.1h2.526V65.153H13.368V44.944a1.263,1.263,0,1,0-2.526,0V65.153H8.315a1.263,1.263,0,0,0-1.263,1.263v3.789H3.263a1.263,1.263,0,1,0,0,2.526H75.258v2.526H3.263a1.263,1.263,0,1,0,0,2.526H76.521a1.263,1.263,0,0,0,1.263-1.263V71.468A1.263,1.263,0,0,0,76.521,70.205ZM56.312,65.153H53.786a1.263,1.263,0,0,0-1.263,1.263v3.789H27.261V66.416A1.263,1.263,0,0,0,26,65.153H23.472V56.881a18.906,18.906,0,0,0,32.84,0ZM70.205,27.261H55.049V24.735H70.205ZM9.578,24.735H24.735v2.526H9.578Zm8.841,5.052H26a1.263,1.263,0,0,0,1.263-1.263V24.735h2.526a1.263,1.263,0,1,0,0-2.526H8.168l31.724-17.5,31.724,17.5H34.84a1.263,1.263,0,1,0,0,2.526H52.522v3.789a1.263,1.263,0,0,0,1.263,1.263h2.526v8.307a18.972,18.972,0,0,0-5.6-6.168A1.263,1.263,0,1,0,49.264,34a16.474,16.474,0,1,1-4.193-2.1,1.264,1.264,0,1,0,.8-2.4,18.876,18.876,0,0,0-22.394,8.562V33.577a1.263,1.263,0,0,0-2.526,0V65.153H18.42ZM9.578,70.205V67.679H24.735v2.526Zm45.47,0V67.679H70.205v2.526Z" transform="translate(-2 -2)"/><path class="a" d="M21,40.894a13.817,13.817,0,0,0,5.315,10.915,1.263,1.263,0,1,0,1.563-1.984A11.355,11.355,0,0,1,33.631,29.6v2.631a5.042,5.042,0,0,0,1.263,9.925,2.526,2.526,0,1,1-2.526,2.526,1.263,1.263,0,0,0-2.526,0,5.052,5.052,0,0,0,3.789,4.873v2.618a11.762,11.762,0,0,1-1.689-.315,1.263,1.263,0,1,0-.656,2.439A13.886,13.886,0,1,0,21,40.894Zm25.261,0a11.38,11.38,0,0,1-10.1,11.293V49.556a5.042,5.042,0,0,0-1.263-9.925A2.526,2.526,0,1,1,37.42,37.1a1.263,1.263,0,0,0,2.526,0,5.052,5.052,0,0,0-3.789-4.873V29.6A11.38,11.38,0,0,1,46.261,40.894Z" transform="translate(2.998 4.577)"/></g></g></svg>