<svg xmlns="http://www.w3.org/2000/svg" xmlns:xlink="http://www.w3.org/1999/xlink" width="414" height="800" viewBox="0 0 414 800"><defs><style>.a{fill:#fff;}.b{fill:#104288;}.c{clip-path:url(#a);}.d{fill:#004796;}.e{fill:none;stroke:#e671a8;stroke-miterlimit:10;stroke-width:3px;}.f{fill:#5299d5;}.g{fill:#3fb1bb;}.h{fill:#5467ad;}.i{fill:#3655a0;}.j{fill:#ef87b5;}.k{fill:#e671a8;}.l{fill:#a4add8;}.m{fill:#8e9ed1;}</style><clipPath id="a"><rect class="a" width="414" height="268" transform="translate(0 622)"/></clipPath></defs><g transform="translate(0 -90)"><rect class="b" width="414" height="800" transform="translate(0 90)"/><g class="c"><g transform="translate(-1945.44 515)"><path class="d" d="M382.334,284.28,289.97,337.957,197,284.281l92.364-53.676Z" transform="translate(1967.595 -73.369)"/><path class="e" d="M-112.484,730.1-287.466,831.788-463.593,730.1l174.982-101.689Z" transform="translate(2436.033 -355.461)"/><path class="f" d="M525.484,392.144l-.109,38.6-207.06,120.33.109-38.6Z" transform="translate(1881.57 -187.919)"/><path class="g" d="M509.667,660.99l-.076,26.729L365.271,604.4l.076-26.729Z" transform="translate(1848.272 -319.476)"/><path class="h" d="M216.385,597.469l.166-58.715,51.1,29.5-.166,58.715Z" transform="translate(1953.85 -291.883)"/><path class="h" d="M267.649,568.256l-51.1-29.5-.166,58.715,51.1,29.5.166-58.715" transform="translate(1953.85 -291.883)"/><path class="i" d="M216.385,597.469l.166-58.715,51.1,29.5-.166,58.715Z" transform="translate(1953.85 -291.883)"/><path class="j" d="M877.946,597.7l.228-80.548,35.049,20.235-.228,80.548Z" transform="translate(1484.727 -276.566)"/><path class="j" d="M913.223,537.389l-35.049-20.235-.228,80.548,35.049,20.235.228-80.548" transform="translate(1484.727 -276.566)"/><path class="k" d="M877.946,597.7l.228-80.548,35.049,20.235-.228,80.548Z" transform="translate(1484.727 -276.566)"/><path class="l" d="M172.062,345.349l.237-83.518,25.549,14.751-.237,83.518Z" transform="translate(1985.28 -95.512)"/><path class="l" d="M197.847,276.581,172.3,261.831l-.237,83.518L197.611,360.1l.237-83.518" transform="translate(1985.28 -95.512)"/><path class="m" d="M172.062,345.349l.237-83.518,25.549,14.751-.237,83.518Z" transform="translate(1985.28 -95.512)"/><circle class="k" cx="15.741" cy="15.741" r="15.741" transform="translate(2271.986 221.42)"/><path class="g" d="M482.46,128.917l-46.308,26.911L389.54,128.917l46.308-26.911Z" transform="translate(1831.063 17.823)"/></g></g></g></svg>