<svg xmlns="http://www.w3.org/2000/svg" width="75" height="75" viewBox="0 0 75 75"><defs><style>.a{fill:#a6aed8;}</style></defs><g transform="translate(-1 -1)"><rect class="a" width="2" height="2" transform="translate(74 74)"/><rect class="a" width="2" height="2" transform="translate(1 74)"/><path class="a" d="M50.629,53a3.629,3.629,0,1,0,0,7.258V57.839a1.21,1.21,0,1,1,1.21-1.21h2.419A3.633,3.633,0,0,0,50.629,53Z" transform="translate(9.645 10.903)"/><path class="a" d="M39,10.677H76V7.048A6.055,6.055,0,0,0,69.952,1H16.726a6.055,6.055,0,0,0-6.048,6.048V49.484a8.473,8.473,0,0,0-7.258,8.371v6.271a3.62,3.62,0,0,0,1.21,7.035h6.048v2.419H5.839V76H71.161V73.581H66.19a8.484,8.484,0,0,0,1.724-2.419h5.667A2.422,2.422,0,0,0,76,68.742V66.323A2.422,2.422,0,0,0,73.581,63.9V50.172L68.723,44.1A18.057,18.057,0,0,0,54.554,37.29H34.241a18.045,18.045,0,0,0-13.886,6.466V29.323ZM20.355,25.9V20.856L30.533,10.677H35.58Zm0-8.468V10.677h6.757ZM16.726,3.419H69.952a3.633,3.633,0,0,1,3.629,3.629v1.21H13.1V7.048A3.633,3.633,0,0,1,16.726,3.419ZM10.677,59.065H5.839v-1.21a6.043,6.043,0,0,1,.122-1.21h4.717Zm0-7.136v2.3H7.08A6.034,6.034,0,0,1,10.677,51.929ZM4.629,68.742a1.21,1.21,0,0,1,0-2.419H8.258V63.9H5.839V61.484h4.839v7.258ZM13.1,10.677h4.839v62.9H13.1ZM60.274,59.065A8.47,8.47,0,0,0,52.635,63.9H42.129v-12.1H61.484v2.419H56.645v2.419h4.839v2.516A8.5,8.5,0,0,0,60.274,59.065ZM51.9,68.742H27.516a7.609,7.609,0,0,0,0-2.419H51.9a7.609,7.609,0,0,0,0,2.419ZM39.71,51.806v2.419H34.871v2.419H39.71V63.9H26.784a8.538,8.538,0,0,0-1.591-2.286v-9.81Zm2.419-2.419V44.548H52.174A9.386,9.386,0,0,1,60,48.736l.434.651Zm-2.419,0H25.837a9.387,9.387,0,0,1,8.217-4.839H39.71ZM25.194,67.532a6.06,6.06,0,0,1-4.839,5.926V61.606A6.06,6.06,0,0,1,25.194,67.532Zm-.133,6.048a8.484,8.484,0,0,0,1.724-2.419H52.635a8.507,8.507,0,0,0,1.724,2.419Zm35.214,0a6.048,6.048,0,1,1,6.048-6.048A6.055,6.055,0,0,1,60.274,73.581Zm13.306-4.839H68.645a7.609,7.609,0,0,0,0-2.419h4.935Zm-2.419-9.9a3.608,3.608,0,0,1,0-6.813ZM34.241,39.71H54.555a15.647,15.647,0,0,1,12.279,5.9l3.358,4.2a6.038,6.038,0,0,0,.969,11.552V63.9H67.913a8.51,8.51,0,0,0-4.01-4.01V50.23l-1.891-2.837a11.8,11.8,0,0,0-9.838-5.265H34.054a11.808,11.808,0,0,0-11.217,8.085l-.063.186v9.492a8.392,8.392,0,0,0-2.419-.732V48.069A15.643,15.643,0,0,1,34.241,39.71Z"/></g></svg>