<svg xmlns="http://www.w3.org/2000/svg" width="31.16" height="31.16" viewBox="0 0 31.16 31.16"><defs><style>.a{fill:#a6aed8;}</style></defs><g transform="translate(578 148.58)"><g transform="translate(-578.42 -149)"><path class="a" d="M16,.42A15.58,15.58,0,1,0,31.58,16,15.58,15.58,0,0,0,16,.42Zm0,29.16A13.58,13.58,0,1,1,29.58,16,13.58,13.58,0,0,1,16,29.58Z"/><path class="a" d="M19.56,11.02,16,14.59l-3.56-3.57-1.42,1.42L14.59,16l-3.57,3.56,1.42,1.42L16,17.41l3.56,3.57,1.42-1.42L17.41,16l3.57-3.56Z"/></g></g></svg>