<svg xmlns="http://www.w3.org/2000/svg" width="75.838" height="75.838" viewBox="0 0 75.838 75.838"><defs><style>.a{fill:#f088b6;}</style></defs><path class="a" d="M19.788,287.177H47.6a3.8,3.8,0,0,0,3.792-3.792v-31.6a3.8,3.8,0,0,0-3.792-3.792H19.788A3.8,3.8,0,0,0,16,251.787v31.6a3.8,3.8,0,0,0,3.792,3.792Zm-1.264-35.391a1.265,1.265,0,0,1,1.264-1.264H47.6a1.265,1.265,0,0,1,1.264,1.264v31.6A1.265,1.265,0,0,1,47.6,284.65H19.788a1.265,1.265,0,0,1-1.264-1.264Z" transform="translate(-15.996 -211.34)"/><path class="a" d="M50.894,288.472a1.264,1.264,0,0,0,.894.37h17.7a1.264,1.264,0,0,0,.894-.37l2.528-2.528a1.264,1.264,0,0,0,.37-.894v-3.792a1.264,1.264,0,0,0-1.264-1.264H49.26A1.264,1.264,0,0,0,48,281.259v3.792a1.264,1.264,0,0,0,.37.894Zm-.37-5.95H70.747v2l-1.787,1.787H52.311l-1.787-1.787Z" transform="translate(-42.94 -238.284)"/><path class="a" d="M49.26,369.69H72.011a1.264,1.264,0,0,0,1.264-1.264V353.259a1.264,1.264,0,0,0-1.264-1.264H49.26A1.264,1.264,0,0,0,48,353.259v15.168a1.264,1.264,0,0,0,1.264,1.264Zm1.264-7.584H55.58v5.056H50.524Zm7.584,0h5.056v5.056H58.108Zm12.64,5.056H65.692v-12.64h5.056Zm-7.584-7.584H58.108v-5.056h5.056Zm-12.64-5.056H55.58v5.056H50.524Z" transform="translate(-42.94 -298.908)"/><path class="a" d="M242.956,60.634a1.264,1.264,0,0,0,1.264-1.264V49.259a1.264,1.264,0,0,0-1.264-1.264h-17.7A1.264,1.264,0,0,0,224,49.259V59.37a1.264,1.264,0,0,0,1.264,1.264Zm-9.48-10.112h1.264v7.584h-1.264Zm8.216,7.584h-4.424V55.578h1.9V53.05h-1.9V50.523h4.424Zm-15.168-7.584h4.424V53.05h-1.9v2.528h1.9v2.528h-4.424Z" transform="translate(-191.133 -42.939)"/><path class="a" d="M152,145.259V157.9h2.528v-5.056h16.432v17.7h-2.528v2.528h25.279a1.264,1.264,0,0,0,1.264-1.264V145.259a1.264,1.264,0,0,0-1.264-1.264H153.26A1.264,1.264,0,0,0,152,145.259Zm29.071,7.584v2.528h-7.584v-2.528Zm2.528,10.112h8.848v2.528H183.6Zm0-2.528V157.9h8.848v2.528Zm0-5.056v-2.528h8.848v2.528ZM173.483,157.9h7.584v12.64h-7.584Zm10.112,12.64V168.01h8.848v2.528Zm8.848-24.015v3.792H154.524v-3.792Z" transform="translate(-130.509 -123.771)"/><rect class="a" width="1.71" height="3.42" transform="translate(26.252 31.382)"/><rect class="a" width="5.13" height="3.42" transform="translate(31.382 31.382)"/><path class="a" d="M178.138,67.817h-5.056V17.259a1.264,1.264,0,0,0-1.264-1.264H121.26A1.264,1.264,0,0,0,120,17.259V50.122h2.528v-31.6h48.031V67.817H141.483v2.528h35.391v2.528a5.062,5.062,0,0,1-5.056,5.056H141.483v2.528h30.335a7.592,7.592,0,0,0,7.584-7.584V69.081A1.264,1.264,0,0,0,178.138,67.817Z" transform="translate(-103.565 -15.995)"/><rect class="a" width="1.71" height="1.71" transform="translate(22.833 15.993)"/><rect class="a" width="1.71" height="1.71" transform="translate(27.962 15.993)"/></svg>