<svg xmlns="http://www.w3.org/2000/svg" width="44" height="44" viewBox="0 0 44 44"><defs><style>.a{fill:#f088b6;}</style></defs><g transform="translate(1105 -2929)"><g transform="translate(-1105 2929)"><path class="a" d="M38.02,13.485a.733.733,0,0,0,.354-1.375L28.5,6.66a.733.733,0,0,0-.708,0l-9.878,5.45a.733.733,0,0,0,.354,1.375ZM26.675,10.552a1.467,1.467,0,1,1,1.467,1.467A1.467,1.467,0,0,1,26.675,10.552Zm3.992,1.467a2.773,2.773,0,0,0,.26-2.342l4.245,2.342ZM25.355,9.676a2.769,2.769,0,0,0,.261,2.342h-4.5Z" transform="translate(-6.142 -3.218)"/><path class="a" d="M45.267,41.6h-2.2V39.4a.733.733,0,0,0-.733-.733H40.867V20.333a.733.733,0,0,0-1.467,0V38.667H35V18.133h1.467V36.467a.733.733,0,0,0,1.467,0V18.133h4.4a.733.733,0,0,0,.733-.733V15.2h2.2a.733.733,0,0,0,.354-1.375L24.354,2.092a.729.729,0,0,0-.708,0L2.379,13.825A.733.733,0,0,0,2.733,15.2h2.2v2.2a.733.733,0,0,0,.733.733H7.133V24A.733.733,0,1,0,8.6,24V18.133h1.467V38.667H8.6V26.933a.733.733,0,1,0-1.467,0V38.667H5.667a.733.733,0,0,0-.733.733v2.2h-2.2a.733.733,0,0,0,0,1.467h41.8v1.467H2.733a.733.733,0,0,0,0,1.467H45.267A.733.733,0,0,0,46,45.267V42.333A.733.733,0,0,0,45.267,41.6ZM33.533,38.667H32.067a.733.733,0,0,0-.733.733v2.2H16.667V39.4a.733.733,0,0,0-.733-.733H14.467v-4.8a10.977,10.977,0,0,0,19.067,0Zm8.067-22H32.8V15.2h8.8ZM6.4,15.2h8.8v1.467H6.4Zm5.133,2.933h4.4a.733.733,0,0,0,.733-.733V15.2h1.467a.733.733,0,1,0,0-1.467H5.581L24,3.571,42.419,13.733H21.067a.733.733,0,0,0,0,1.467H31.333v2.2a.733.733,0,0,0,.733.733h1.467v4.823a11.015,11.015,0,0,0-3.253-3.581.733.733,0,1,0-.839,1.2,9.565,9.565,0,1,1-2.435-1.22.734.734,0,1,0,.462-1.393,10.96,10.96,0,0,0-13,4.971v-2.6a.733.733,0,1,0-1.467,0V38.667H11.533ZM6.4,41.6V40.133h8.8V41.6Zm26.4,0V40.133h8.8V41.6Z" transform="translate(-2 -2)"/><path class="a" d="M21,35.067A8.022,8.022,0,0,0,24.086,41.4a.733.733,0,1,0,.907-1.152,6.593,6.593,0,0,1,3.34-11.742v1.528a2.927,2.927,0,0,0,.733,5.763A1.467,1.467,0,1,1,27.6,37.267a.733.733,0,0,0-1.467,0,2.933,2.933,0,0,0,2.2,2.829v1.52a6.829,6.829,0,0,1-.98-.183.733.733,0,1,0-.381,1.416A8.062,8.062,0,1,0,21,35.067Zm14.667,0A6.607,6.607,0,0,1,29.8,41.624V40.1a2.927,2.927,0,0,0-.733-5.763,1.467,1.467,0,1,1,1.467-1.467.733.733,0,0,0,1.467,0,2.933,2.933,0,0,0-2.2-2.829V28.51A6.607,6.607,0,0,1,35.667,35.067Z" transform="translate(-7.067 -8.667)"/></g></g></svg>