<svg xmlns="http://www.w3.org/2000/svg" width="75.3" height="71.459" viewBox="0 0 75.3 71.459"><defs><style>.a{fill:#a6aed8;}</style></defs><g transform="translate(-9 -10)"><path class="a" d="M83.942,22.684l-7.86-6.253a.755.755,0,0,0-.536-.179H55.537L22.577,10a1.074,1.074,0,0,0-.715.179L10.251,17.325a.928.928,0,0,0-.357.715V23.4a.844.844,0,0,0,.893.893h7.146l.089,55.38H9.893a.893.893,0,1,0,0,1.786H81.352a.893.893,0,1,0,0-1.786h-2.68v-2.68a.844.844,0,0,0-.893-.893H75.992V55.555a.893.893,0,1,0-1.786,0v8.932H64.38V62.7a.893.893,0,0,0-1.786,0v1.786H41.156V35.9a.893.893,0,0,0-1.786,0V76.1H37.583a.844.844,0,0,0-.893.893v2.68H26.865V24.292h26.8v3.573a.844.844,0,0,0,.893.893h1.786v5.359h-.893a.844.844,0,0,0-.893.893.811.811,0,0,0,.268.625l3.3,3.3V41.71a.447.447,0,1,1-.893,0v-.447a.893.893,0,1,0-1.786,0v.447a2.426,2.426,0,0,0,.536,1.518L51.25,46.8h0a3340.651,3340.651,0,0,0-.179.357c0,.089,0,.089-.089.179v11.88a.844.844,0,0,0,.893.893H63.487a.844.844,0,0,0,.893-.893V47.248c0-.089,0-.089-.089-.179,0-.089-.089-.089-.089-.179s-.089-.089-.089-.179h0l-4.734-3.573a2.254,2.254,0,0,0,.536-1.518V38.851l3.3-3.3a.863.863,0,0,0,0-1.251,1.291,1.291,0,0,0-.625-.179H61.7V28.758h1.786a.844.844,0,0,0,.893-.893V24.292H83.406A.844.844,0,0,0,84.3,23.4.812.812,0,0,0,83.942,22.684Zm-9.736,43.59V76.1H64.38V66.274ZM62.594,76.1H52.768V66.274h9.826ZM41.156,66.274h9.826V76.1H41.156Zm-2.68,11.612H76.886v1.786H38.477Zm-13.4-35.64-4.734-4.734,4.734-4.734Zm0,13.4L20.344,50.91l4.734-4.734ZM24.542,57.7l-4.823,4.823V52.875Zm-4.823-8.575V39.477L24.542,44.3Zm0-13.4V26.078L24.542,30.9Zm0-16.793h5.359v3.573H19.719Zm.536-1.786L22.4,12.858l2.144,4.288Zm-2.233.536h0a.537.537,0,0,0-.089.357h0v3.216l-4.02-3.93c-.089,0-.089-.089-.179-.089l6.521-4.02Zm1.786,48.592L24.632,71.1,19.9,75.831Zm.536-1.876,4.734-4.734v9.379Zm.179-40.106h4.555v4.555Zm6.342-6.253a.537.537,0,0,0-.089-.357h0l-2.769-5.538,21.884,4.109H33.475a.958.958,0,0,0-.536.179l-6.074,5.091ZM11.68,22.505V18.932H12.93l3.662,3.573Zm8.128,57.167h0v-1.34l5.27-5.27v6.61ZM57.681,44.211,60.9,46.623H54.555Zm4.913,14.024H52.768V48.409h9.826Zm-3.573-20.9L57.592,35.9H60.45Zm.893-3.216H58.128V28.758h1.786Zm2.68-7.146H55.448v-2.68h7.146ZM28.472,22.505l5.359-4.466H75.278l5.627,4.466Z"/><path class="a" d="M52.359,75H47.893a.844.844,0,0,0-.893.893v4.466a.844.844,0,0,0,.893.893h4.466a.844.844,0,0,0,.893-.893V75.893A.844.844,0,0,0,52.359,75Zm-.893,4.466h-2.68v-2.68h2.68Z" transform="translate(-4.057 -6.94)"/></g></svg>