<svg xmlns="http://www.w3.org/2000/svg" width="80.337" height="76.24" viewBox="0 0 80.337 76.24"><defs><style>.a{fill:#f088b6;}</style></defs><path class="a" d="M88.956,23.533,80.57,16.862A.806.806,0,0,0,80,16.671H58.651L23.486,10a1.146,1.146,0,0,0-.762.191L10.334,17.815a.99.99,0,0,0-.381.762v5.718a.9.9,0,0,0,.953.953H18.53l.1,59.086H9.953a.953.953,0,1,0,0,1.906h76.24a.953.953,0,1,0,0-1.906H83.334V81.475a.9.9,0,0,0-.953-.953H80.475V58.6a.953.953,0,1,0-1.906,0v9.53H68.086V66.227a.953.953,0,0,0-1.906,0v1.906H43.308v-30.5a.953.953,0,0,0-1.906,0V80.522H39.5a.9.9,0,0,0-.953.953v2.859H28.06V25.248H56.65V29.06a.9.9,0,0,0,.953.953h1.906v5.718h-.953a.9.9,0,0,0-.953.953.865.865,0,0,0,.286.667l3.526,3.526v2.954a.476.476,0,1,1-.953,0v-.476a.953.953,0,1,0-1.906,0v.476a2.588,2.588,0,0,0,.572,1.62l-5.051,3.812h0a3327.2,3327.2,0,0,0-.191.381c0,.1,0,.1-.1.191V62.51a.9.9,0,0,0,.953.953H67.133a.9.9,0,0,0,.953-.953V49.74c0-.1,0-.1-.1-.191,0-.1-.1-.1-.1-.191s-.1-.1-.1-.191h0l-5.051-3.812a2.4,2.4,0,0,0,.572-1.62V40.782l3.526-3.526a.921.921,0,0,0,0-1.334,1.377,1.377,0,0,0-.667-.191h-.953V30.013h1.906a.9.9,0,0,0,.953-.953V25.248h20.3a.9.9,0,0,0,.953-.953A.867.867,0,0,0,88.956,23.533ZM78.569,70.039V80.522H68.086V70.039ZM66.18,80.522H55.7V70.039H66.18ZM43.308,70.039H53.791V80.522H43.308ZM40.449,82.428H81.428v1.906H40.449ZM26.154,44.4,21.1,39.352,26.154,34.3Zm0,14.295L21.1,53.647,26.154,48.6Zm-.572,2.192-5.146,5.146V55.744Zm-5.146-9.149V41.449l5.146,5.146Zm0-14.295V27.154L25.582,32.3Zm0-17.916h5.718v3.812H20.436Zm.572-1.906,2.287-4.574,2.287,4.574Zm-2.382.572h0a.573.573,0,0,0-.1.381h0v3.431l-4.288-4.193c-.1,0-.1-.1-.191-.1l6.957-4.288Zm1.906,51.843,5.146,5.146-5.051,5.051Zm.572-2,5.051-5.051V72.993Zm.191-42.789h4.86v4.86Zm6.766-6.671a.573.573,0,0,0-.1-.381h0L25.01,12.287l23.348,4.384H35.112a1.022,1.022,0,0,0-.572.191l-6.48,5.432Zm-16.2,4.765V19.53h1.334L17.1,23.342Zm8.672,60.992h0V82.9l5.623-5.623v7.052ZM60.938,46.5l3.431,2.573H57.6ZM66.18,61.462H55.7V50.979H66.18Zm-3.812-22.3-1.525-1.525h3.05Zm.953-3.431H61.415V30.013h1.906Zm2.859-7.624H58.556V25.248H66.18Zm-36.4-4.765,5.718-4.765H79.712l6,4.765Z" transform="translate(-9 -10)"/><path class="a" d="M50.132,75h-2.61a.493.493,0,0,0-.522.522v2.61a.493.493,0,0,0,.522.522h2.61a.493.493,0,0,0,.522-.522v-2.61A.493.493,0,0,0,50.132,75Zm-.522,2.61H48.044V76.044H49.61Z" transform="translate(-9.303 -6.59)"/></svg>