<svg xmlns="http://www.w3.org/2000/svg" xmlns:xlink="http://www.w3.org/1999/xlink" width="122" height="123" viewBox="0 0 122 123"><defs><style>.a{fill:url(#a);}.b{fill:#fff;}.c{fill:#5467ae;font-size:18px;font-family:IBMPlexSans-SemiBold, IBM Plex Sans;font-weight:600;}.d{fill:none;stroke:#000;stroke-miterlimit:10;stroke-width:2px;}.e{filter:url(#b);}</style><linearGradient id="a" x1="0.157" y1="0.055" x2="0.925" y2="1" gradientUnits="objectBoundingBox"><stop offset="0" stop-color="#0157a5"/><stop offset="1" stop-color="#4ebbc5"/></linearGradient><filter id="b" x="60" y="0" width="62" height="62" filterUnits="userSpaceOnUse"><feOffset dy="5" input="SourceAlpha"/><feGaussianBlur stdDeviation="5" result="c"/><feFlood flood-color="#5467ae" flood-opacity="0.2"/><feComposite operator="in" in2="c"/><feComposite in="SourceGraphic"/></filter></defs><g transform="translate(-441 -3041)"><circle class="a" cx="56.5" cy="56.5" r="56.5" transform="translate(441 3051)"/><g class="e" transform="matrix(1, 0, 0, 1, 441, 3041)"><circle class="b" cx="16" cy="16" r="16" transform="translate(75 10)"/></g><text class="c" transform="translate(532 3073)"><tspan x="-5.4" y="0">4</tspan></text><g transform="translate(453.6 3069.319)"><path class="d" d="M46.7,11.1" transform="translate(-4.161)"/><g transform="translate(26.4 11.498)"><g transform="translate(8.03 61.693)"><rect class="b" width="19.637" height="1.59"/></g><g transform="translate(12.377 14.787)"><path class="b" d="M47.479,41.171a5.594,5.594,0,0,1-4.055-1.749A5.484,5.484,0,0,1,47.479,30.2a5.594,5.594,0,0,1,4.055,1.749,5.256,5.256,0,0,1,1.431,3.975,5.548,5.548,0,0,1-1.749,3.816A5.91,5.91,0,0,1,47.479,41.171Zm0-9.54a4.409,4.409,0,0,0-2.7,1.034A3.936,3.936,0,0,0,47.4,39.5a4.409,4.409,0,0,0,2.7-1.034,3.947,3.947,0,0,0,1.272-2.7A3.879,3.879,0,0,0,50.341,32.9,3.982,3.982,0,0,0,47.479,31.631Z" transform="translate(-41.969 -30.2)"/></g><path class="b" d="M44.288,56.677c-3.339,0-6.2-1.829-6.917-4.293L26.4,54.531v-.954c0-5.406,1.59-9.3,4.929-12.561C30.137,25.592,36.974,15.893,43.89,11.839l.4-.239.4.239c6.837,3.975,13.674,13.754,12.561,29.177,3.419,3.26,4.929,7.155,4.929,12.641v.954L51.125,52.464C50.409,54.849,47.627,56.677,44.288,56.677Zm0-1.59c4.611,0,5.963-4.452,5.963-4.452L60.586,52.7c-.159-4.611-1.59-7.871-4.532-10.653l-.318-.318h-.08c1.67-14.072-5.168-24.963-11.369-28.3C37.928,17.4,31.647,26.705,33,41.413v.159c-3.26,2.862-4.77,6.281-5.009,10.971l10.335-2.067A6.284,6.284,0,0,0,44.288,55.087Z" transform="translate(-26.4 -11.6)"/><g transform="translate(14.231 47.462)"><path class="b" d="M47.878,83.623l-.636-.954c-.318-.477-2.942-4.452-2.942-7,0-2.385,1.67-4.373,3.657-4.373s3.657,1.988,3.657,4.373c0,2.783-2.862,6.837-3.021,7Zm.08-10.733c-1.113,0-2.067,1.272-2.067,2.783,0,1.352,1.193,3.657,2.067,5.088.875-1.431,2.067-3.657,2.067-5.088C49.945,74.162,49.07,72.89,47.957,72.89Z" transform="translate(-44.3 -71.3)"/></g></g></g></g></svg>