<svg xmlns="http://www.w3.org/2000/svg" width="75.784" height="73.258" viewBox="0 0 75.784 73.258"><defs><style>.a{fill:#f088b6;}</style></defs><path class="a" d="M73.995,24.209H71.468V15.368a3.794,3.794,0,0,0-3.789-3.789H32.313V7.789A3.794,3.794,0,0,0,28.524,4H5.789A3.794,3.794,0,0,0,2,7.789V22.946a3.794,3.794,0,0,0,3.789,3.789H8.315v7.578H7.052A3.794,3.794,0,0,0,3.263,38.1v10.1A3.794,3.794,0,0,0,7.052,52H8.315v6.315A3.794,3.794,0,0,0,12.1,62.1H33.577v7.578H28.524a1.263,1.263,0,0,0-1.263,1.263v5.052a1.263,1.263,0,0,0,1.263,1.263H51.259a1.263,1.263,0,0,0,1.263-1.263V70.942a1.263,1.263,0,0,0-1.263-1.263H46.207V62.1H67.679a3.794,3.794,0,0,0,3.789-3.789V46.944h2.526a3.794,3.794,0,0,0,3.789-3.789V28A3.794,3.794,0,0,0,73.995,24.209ZM67.679,14.1a1.264,1.264,0,0,1,1.263,1.263v8.841H66.416V17.894a1.263,1.263,0,0,0-1.263-1.263H32.313V14.1ZM53.786,46.944h10.1v7.578h-48V52h6.315A3.794,3.794,0,0,0,26,48.207V38.1a3.794,3.794,0,0,0-3.789-3.789H15.894V26.735H28.524a3.794,3.794,0,0,0,3.789-3.789V19.157H63.89v5.052h-10.1A3.794,3.794,0,0,0,50,28V43.155A3.794,3.794,0,0,0,53.786,46.944Zm-49.259-24V7.789A1.264,1.264,0,0,1,5.789,6.526H28.524a1.264,1.264,0,0,1,1.263,1.263V22.946a1.264,1.264,0,0,1-1.263,1.263H5.789A1.264,1.264,0,0,1,4.526,22.946Zm6.315,3.789h2.526v7.578H10.841ZM5.789,48.207V38.1A1.264,1.264,0,0,1,7.052,36.84H22.209A1.264,1.264,0,0,1,23.472,38.1v10.1a1.264,1.264,0,0,1-1.263,1.263H7.052A1.264,1.264,0,0,1,5.789,48.207ZM50,74.731H29.787V72.205H50Zm-6.315-5.052H36.1V62.1h7.578ZM68.942,58.312a1.264,1.264,0,0,1-1.263,1.263H12.1a1.264,1.264,0,0,1-1.263-1.263V52h2.526v3.789a1.263,1.263,0,0,0,1.263,1.263H65.153a1.263,1.263,0,0,0,1.263-1.263V46.944h2.526Zm6.315-15.157a1.264,1.264,0,0,1-1.263,1.263H53.786a1.264,1.264,0,0,1-1.263-1.263V28a1.264,1.264,0,0,1,1.263-1.263H73.995A1.264,1.264,0,0,1,75.258,28Z" transform="translate(-2 -4)"/><rect class="a" width="20" height="2" transform="translate(5 5.258)"/><rect class="a" width="20" height="2" transform="translate(5 10.258)"/><rect class="a" width="20" height="2" transform="translate(5 15.258)"/><rect class="a" width="18" height="3" transform="translate(53 25.258)"/><rect class="a" width="18" height="3" transform="translate(53 30.258)"/><rect class="a" width="18" height="3" transform="translate(53 35.258)"/><rect class="a" width="13" height="3" transform="translate(6 35.258)"/><rect class="a" width="13" height="3" transform="translate(6 40.258)"/></svg>