<svg xmlns="http://www.w3.org/2000/svg" width="44.354" height="44.354" viewBox="0 0 44.354 44.354"><defs><style>.a{fill:#f088b6;}</style></defs><path class="a" d="M18.214,270.911H34.477a2.22,2.22,0,0,0,2.218-2.218V250.212a2.22,2.22,0,0,0-2.218-2.218H18.214A2.22,2.22,0,0,0,16,250.212v18.481a2.22,2.22,0,0,0,2.218,2.218Zm-.739-20.7a.74.74,0,0,1,.739-.739H34.477a.74.74,0,0,1,.739.739v18.481a.74.74,0,0,1-.739.739H18.214a.74.74,0,0,1-.739-.739Z" transform="translate(-15.996 -226.557)"/><path class="a" d="M49.691,284.953a.739.739,0,0,0,.523.217H60.563a.739.739,0,0,0,.523-.217l1.478-1.478a.739.739,0,0,0,.216-.523v-2.218a.739.739,0,0,0-.739-.739H48.735a.739.739,0,0,0-.739.739v2.218a.739.739,0,0,0,.216.523Zm-.216-3.48H61.3v1.172l-1.045,1.045H50.52l-1.045-1.045Z" transform="translate(-45.039 -255.6)"/><path class="a" d="M48.735,362.344H62.041a.739.739,0,0,0,.739-.739v-8.871a.739.739,0,0,0-.739-.739H48.735a.739.739,0,0,0-.739.739V361.6a.739.739,0,0,0,.739.739Zm.739-4.435h2.957v2.957H49.475Zm4.435,0h2.957v2.957H53.91Zm7.392,2.957H58.345v-7.392H61.3Zm-4.435-4.435H53.91v-2.957h2.957Zm-7.392-2.957h2.957v2.957H49.475Z" transform="translate(-45.039 -320.947)"/><path class="a" d="M235.085,55.387a.739.739,0,0,0,.739-.739V48.734a.739.739,0,0,0-.739-.739H224.735a.739.739,0,0,0-.739.739v5.914a.739.739,0,0,0,.739.739Zm-5.544-5.914h.739v4.435h-.739Zm4.8,4.435h-2.587V52.43h1.109V50.952h-1.109V49.473h2.587Zm-8.871-4.435h2.587v1.478h-1.109V52.43h1.109v1.478h-2.587Z" transform="translate(-204.776 -45.038)"/><path class="a" d="M152,144.734v7.392h1.478v-2.957h9.61v10.349h-1.478V161h14.785a.739.739,0,0,0,.739-.739V144.734a.739.739,0,0,0-.739-.739H152.735A.739.739,0,0,0,152,144.734Zm17,4.435v1.478h-4.435v-1.478Zm1.478,5.914h5.175v1.478h-5.175Zm0-1.478v-1.478h5.175V153.6Zm0-2.957v-1.478h5.175v1.478Zm-5.914,1.478H169v7.392h-4.435Zm5.914,7.392V158.04h5.175v1.478Zm5.175-14.045v2.218H153.475v-2.218Z" transform="translate(-139.429 -132.167)"/><rect class="a" width="1" height="2" transform="translate(15.354 18.354)"/><rect class="a" width="3" height="2" transform="translate(18.354 18.354)"/><path class="a" d="M154,46.3h-2.957V16.734a.739.739,0,0,0-.739-.739H120.735a.739.739,0,0,0-.739.739v19.22h1.478V17.473h28.091V46.3h-17v1.478h20.7V49.26a2.96,2.96,0,0,1-2.957,2.957H132.563V53.7H150.3a4.44,4.44,0,0,0,4.435-4.435V47.042A.739.739,0,0,0,154,46.3Z" transform="translate(-110.386 -15.995)"/><rect class="a" width="1" height="1" transform="translate(13.354 9.354)"/><rect class="a" width="1" height="1" transform="translate(16.354 9.354)"/></svg>