<svg xmlns="http://www.w3.org/2000/svg" xmlns:xlink="http://www.w3.org/1999/xlink" width="122" height="123" viewBox="0 0 122 123"><defs><style>.a{fill:url(#a);}.b{fill:#fff;}.c{fill:#5467ae;font-size:18px;font-family:IBMPlexSans-SemiBold, IBM Plex Sans;font-weight:600;}.d{filter:url(#b);}</style><linearGradient id="a" x1="0.157" y1="0.055" x2="0.925" y2="1" gradientUnits="objectBoundingBox"><stop offset="0" stop-color="#0157a5"/><stop offset="1" stop-color="#4ebbc5"/></linearGradient><filter id="b" x="60" y="0" width="62" height="62" filterUnits="userSpaceOnUse"><feOffset dy="5" input="SourceAlpha"/><feGaussianBlur stdDeviation="5" result="c"/><feFlood flood-color="#5467ae" flood-opacity="0.2"/><feComposite operator="in" in2="c"/><feComposite in="SourceGraphic"/></filter></defs><g transform="translate(-441 -3041)"><circle class="a" cx="56.5" cy="56.5" r="56.5" transform="translate(441 3051)"/><g class="d" transform="matrix(1, 0, 0, 1, 441, 3041)"><circle class="b" cx="16" cy="16" r="16" transform="translate(75 10)"/></g><text class="c" transform="translate(532 3073)"><tspan x="-5.4" y="0">3</tspan></text><g transform="translate(429 3108.99)"><g transform="translate(39.501 -27)"><path class="b" d="M56.235,7.115A2.108,2.108,0,0,0,54.13,5.01H3.6A2.108,2.108,0,0,0,1.5,7.115c0,63.2,0,28.189,0,44.615a2.108,2.108,0,0,0,2.105,2.105H54.132a2.108,2.108,0,0,0,2.105-2.105C56.237,51.626,56.235,7.268,56.235,7.115Zm-53.894,0A1.265,1.265,0,0,1,3.6,5.852H54.13a1.265,1.265,0,0,1,1.263,1.263V9.256H2.341V7.115Zm0,2.984H55.393v3.366H2.344ZM55.395,51.73a1.265,1.265,0,0,1-1.263,1.263H3.606A1.265,1.265,0,0,1,2.343,51.73V14.307H55.395Z" transform="translate(0)"/><path class="b" d="M46.409,12.123H17.343c-.36,0-.632.2-.632.462v.64c0,.263.271.462.632.462H46.409c.36,0,.632-.2.632-.462v-.64C47.041,12.321,46.769,12.123,46.409,12.123Zm0,1.143H17.343a.633.633,0,0,1-.208-.042h0l-.006-.616a.308.308,0,0,1,.216-.065H46.409a.7.7,0,0,1,.211.041l.006.616A.31.31,0,0,1,46.409,13.266Z" transform="translate(-2.402 -1.123)"/><path class="b" d="M60.466,6.347a1.418,1.418,0,1,0,0,2.836,1.418,1.418,0,0,0,0-2.836Zm0,1.994a.576.576,0,1,1,0-1.152.576.576,0,0,1,0,1.152Z" transform="translate(-9.086 -0.211)"/><path class="b" d="M55.323,6.347a1.418,1.418,0,1,0,0,2.836,1.418,1.418,0,0,0,0-2.836Zm0,1.994a.576.576,0,1,1,0-1.152.576.576,0,0,1,0,1.152Z" transform="translate(-8.274 -0.211)"/><path class="b" d="M49.566,6.347a1.418,1.418,0,1,0,0,2.836,1.418,1.418,0,0,0,0-2.836Zm0,1.994a.576.576,0,1,1,0-1.152.576.576,0,0,1,0,1.152Z" transform="translate(-7.365 -0.211)"/><rect class="b" width="5.285" height="0.421" transform="translate(48.489 10.759)"/><rect class="b" width="5.285" height="0.421" transform="translate(48.489 11.571)"/><rect class="b" width="5.285" height="0.421" transform="translate(48.489 12.384)"/><path class="b" d="M6.833,12.718,6.2,11.895,4.4,14.21h5.657L7.907,11.222Zm.292,1.071H5.263l.934-1.2Zm2.114,0H7.658L7.1,13.066l.806-1.123Z" transform="translate(-0.459 -0.981)"/><path class="b" d="M57.789,56.668h3.968V44.282H57.789Zm.842-11.543h2.284v10.7H58.631Z" transform="translate(-8.888 -6.201)"/><path class="b" d="M51.356,57.187h3.967V47.57H51.356Zm.842-8.775h2.283v7.932H52.2Z" transform="translate(-7.873 -6.72)"/><path class="b" d="M44.922,56.487H48.89V43.138H44.922Zm.842-12.507h2.284V55.645H45.764Z" transform="translate(-6.857 -6.021)"/><path class="b" d="M42.457,47.57H38.489v9.617h3.968Zm-.842,8.775H39.331V48.412h2.284Z" transform="translate(-5.841 -6.72)"/><rect class="b" width="18.545" height="0.842" transform="translate(5.29 49.625)"/><rect class="b" width="22.737" height="0.842" transform="translate(5.29 46.905)"/><rect class="b" width="25.263" height="0.842" transform="translate(5.29 44.185)"/><rect class="b" width="25.263" height="0.842" transform="translate(5.29 41.466)"/><rect class="b" width="25.263" height="0.842" transform="translate(5.29 38.746)"/><rect class="b" width="15.708" height="0.842" transform="translate(36.574 27.712)"/><rect class="b" width="15.708" height="0.842" transform="translate(36.574 24.992)"/><rect class="b" width="15.708" height="0.842" transform="translate(36.574 22.272)"/><rect class="b" width="15.708" height="0.842" transform="translate(36.574 19.553)"/><rect class="b" width="15.708" height="0.842" transform="translate(36.574 16.833)"/><rect class="b" width="27.185" height="0.842" transform="translate(5.29 16.833)"/><path class="b" d="M8.214,40.923a1.348,1.348,0,0,0-.239-.766l1.7-1.941a1.205,1.205,0,0,0,1.106.015l1.286,1.789a1.353,1.353,0,1,0,2.069.074l2.447-3.477A1.267,1.267,0,0,0,17.8,36.5l2.159,2.248a1.331,1.331,0,0,0,1.17,1.992,1.352,1.352,0,0,0,1.075-2.172l2.364-2.906a1.317,1.317,0,0,0,1.447-.244l4.2,2.805a1.358,1.358,0,1,0,.405-.539l-4.248-2.835a1.312,1.312,0,0,0,.074-.425,1.356,1.356,0,1,0-2.424.835l-2.354,2.895a1.436,1.436,0,0,0-1.262.091L18.252,36A1.331,1.331,0,0,0,17.082,34a1.36,1.36,0,0,0-1.048,2.22L13.591,39.7a1.427,1.427,0,0,0-.958-.039l-1.319-1.835a1.354,1.354,0,1,0-2.17-.023l-1.68,1.919a1.356,1.356,0,1,0,.749,1.206Zm23.779-2.19a.514.514,0,0,1-1.028,0C30.965,38.45,31.993,38.059,31.993,38.734Zm-6.38-4.308a.453.453,0,0,1-.089.277.518.518,0,1,1,.089-.277Zm-4.48,4.446a.514.514,0,0,1,0,1.028A.514.514,0,0,1,21.133,38.872ZM17.6,35.361a.514.514,0,0,1-1.028,0A.514.514,0,0,1,17.6,35.361Zm-4.531,6.08a.514.514,0,0,1,0-1.028A.514.514,0,0,1,13.065,41.441ZM10.758,37a.518.518,0,0,1-1.036,0A.518.518,0,0,1,10.758,37ZM7.371,40.923a.514.514,0,0,1-1.028,0C6.343,40.64,7.371,40.249,7.371,40.923Z" transform="translate(-0.632 -4.431)"/><path class="b" d="M33.114,29.682l-.279-.157V22.28H5.5v7.4ZM8.685,28.84l4.625-3.327L17.3,27.926l3.57-1.613,3.306,2.156,2.989-1.16L29.9,28.84H8.685ZM6.343,23.122h25.65V28.84h-.378l-4.38-2.46-2.957,1.147-3.33-2.172-3.588,1.62L13.27,24.5,7.243,28.84h-.9Z" transform="translate(-0.632 -2.727)"/></g></g></g></svg>