<svg xmlns="http://www.w3.org/2000/svg" width="30.665" height="38.451" viewBox="0 0 30.665 38.451"><defs><style>.a{fill:#fff;}</style></defs><g transform="translate(-24.2 -17.3)"><path class="a" d="M39.533,17.3A15.37,15.37,0,0,0,24.2,32.633c0,5.467,2.555,11.113,7.488,16.4a41.853,41.853,0,0,0,7.429,6.359l.416.357.475-.3a45.626,45.626,0,0,0,7.369-6.537c4.873-5.349,7.488-10.935,7.488-16.224A15.383,15.383,0,0,0,39.533,17.3Zm0,36.252a43.3,43.3,0,0,1-6.6-5.765c-3.15-3.447-6.953-8.855-6.953-15.154a13.55,13.55,0,0,1,27.1,0C53.082,43.092,41.969,51.769,39.533,53.552Zm0-27.634A6.151,6.151,0,1,0,45.654,32.1,6.112,6.112,0,0,0,39.533,25.917Zm0,10.519A4.338,4.338,0,1,1,43.871,32.1,4.363,4.363,0,0,1,39.533,36.436Z"/></g></svg>