<svg xmlns="http://www.w3.org/2000/svg" width="41.435" height="41.435" viewBox="0 0 41.435 41.435"><defs><style>.a{fill:#fff;}</style></defs><g transform="translate(0)"><path class="a" d="M687.981,875.408v-.049l-.032.049Z" transform="translate(-665.16 -857.607)"/><path class="a" d="M622.635,808.342a20.717,20.717,0,1,0,20.717,20.718A20.717,20.717,0,0,0,622.635,808.342Zm-5.311,30.079h-4.773V824.06h4.773ZM614.938,822.1h-.031a2.727,2.727,0,1,1,.031,0Zm19.6,16.321h-4.773v-7.682c0-1.931-.691-3.248-2.418-3.248a2.613,2.613,0,0,0-2.449,1.746,3.267,3.267,0,0,0-.157,1.164v8.019h-4.773s.063-13.013,0-14.36h4.773v2.034a4.738,4.738,0,0,1,4.3-2.371c3.141,0,5.5,2.052,5.5,6.463Z" transform="translate(-601.918 -808.342)"/></g></svg>