<svg xmlns="http://www.w3.org/2000/svg" width="42.055" height="42.055" viewBox="0 0 42.055 42.055"><defs><style>.a{fill:#fff;}</style></defs><g transform="translate(0)"><path class="a" d="M454.913,845.76H443.83a5.026,5.026,0,0,0-5.02,5.02v11.571a5.026,5.026,0,0,0,5.02,5.02h11.083a5.026,5.026,0,0,0,5.02-5.02V850.78A5.026,5.026,0,0,0,454.913,845.76Zm-5.564,17.354a6.533,6.533,0,1,1,6.533-6.533A6.541,6.541,0,0,1,449.349,863.114Zm6.845-11.886a1.613,1.613,0,1,1,1.613-1.613A1.613,1.613,0,0,1,456.194,851.228Z" transform="translate(-428.074 -835.538)"/><path class="a" d="M419.307,807.172A21.028,21.028,0,1,0,440.335,828.2,21.027,21.027,0,0,0,419.307,807.172Zm12.452,26.813a6.648,6.648,0,0,1-6.641,6.641H414.036a6.648,6.648,0,0,1-6.64-6.641V822.414a6.648,6.648,0,0,1,6.64-6.641h11.083a6.648,6.648,0,0,1,6.641,6.641Z" transform="translate(-398.28 -807.172)"/><path class="a" d="M464.959,868.063a4.913,4.913,0,1,0,4.913,4.913A4.919,4.919,0,0,0,464.959,868.063Z" transform="translate(-443.685 -851.933)"/></g></svg>