<svg xmlns="http://www.w3.org/2000/svg" width="29.581" height="29.565" viewBox="0 0 29.581 29.565"><defs><style>.a{fill:#5467AE;fill-rule:evenodd;}</style></defs><g transform="translate(-33.419 -33.199)"><g transform="translate(33.419 33.199)"><path class="a" d="M41.362,43.5,43.8,40.945a1.537,1.537,0,0,0,0-2.108l-4.661-5.216a2.184,2.184,0,0,0-2.108-.222c-.888.555-4.439,3.329-3.44,9.432C34.7,49.6,46.578,61.586,53.347,62.584c6.1,1,8.878-2.441,9.432-3.44a2.3,2.3,0,0,0-.111-2.108l-5.327-4.661a1.345,1.345,0,0,0-2.108,0l-2.441,2.441C50.905,56.148,40.03,45.273,41.362,43.5Zm-3-8.767c-.222-.111-.444-.222-.555-.111-2.663,1.554-3.329,5.216-2.885,7.99,1,6.214,12.54,17.644,18.643,18.643,2.885.444,6.547-.111,8.1-2.774,0-.111-.111-.444-.111-.555l-5.1-4.55-.111-.111c-.111,0-.111.111-.222.111L53.68,55.926h-.111c-2.33,1.665-7.213-3.218-8.656-4.661s-6.325-6.325-4.661-8.545V42.61L42.8,40.057s.111-.222,0-.333Z" transform="translate(-33.419 -33.199)"/></g></g></svg>