<svg xmlns="http://www.w3.org/2000/svg" width="32.486" height="21.153" viewBox="0 0 32.486 21.153"><defs><style>.a{fill:#5467AE;}</style></defs><g transform="translate(-7 -22)"><g transform="translate(7 22)"><path class="a" d="M9.3,974.362A2.3,2.3,0,0,0,7,976.629v16.621a2.3,2.3,0,0,0,2.3,2.266H37.184a2.3,2.3,0,0,0,2.3-2.266V976.629a2.3,2.3,0,0,0-2.3-2.267Zm.39,1.511h27.1L23.9,987.394a1.122,1.122,0,0,1-1.322,0Zm-1.18.968,9.432,8.428-9.432,7.815Zm29.464,0v16.243l-9.432-7.815ZM19.088,986.3l2.491,2.219a2.5,2.5,0,0,0,3.329,0L27.4,986.3,36.712,994H9.774Z" transform="translate(-7 -974.362)"/></g></g></svg>