<svg xmlns="http://www.w3.org/2000/svg" width="122" height="50" viewBox="0 0 122 50"><defs><style>.a{fill:none;}.b{fill:#4ebcc6;}.c{fill:#194288;}</style></defs><rect class="a" width="122" height="50"/><g transform="translate(0 9)"><path class="b" d="M1477.711,530.646l13.584-25.294h-6.743l-13.584,25.294Z" transform="translate(-1450.811 -505.31)"/><path class="c" d="M1433.1,505.351h-6.743l16.967,31.357h6.742Z" transform="translate(-1426.355 -505.31)"/><path class="c" d="M1534.082,536.659h-5.8v-31.4h24.946a9.3,9.3,0,1,1,0,18.6h-17.3l3.145-5.759h14.151a3.541,3.541,0,1,0,0-7.081h-19.143Z" transform="translate(-1482.295 -505.26)"/><path class="c" d="M1641.22,518.1h-19.143v-3.541a3.558,3.558,0,0,1,3.568-3.54h18.928l3.116-5.759h-22.044a9.346,9.346,0,0,0-9.37,9.3V527.4a9.346,9.346,0,0,0,9.37,9.3h15.575a9.3,9.3,0,1,0,0-18.6Zm0,12.841h-15.575a3.558,3.558,0,0,1-3.568-3.541v-3.54h19.143a3.541,3.541,0,1,1,0,7.081Z" transform="translate(-1530.59 -505.26)"/></g></svg>