<svg xmlns="http://www.w3.org/2000/svg" width="177" height="73" viewBox="0 0 177 73"><defs><style>.a{fill:none;}.b{fill:#fff;}</style></defs><rect class="a" width="177" height="73"/><g transform="translate(0 13.072)"><path class="b" d="M1480.762,542.09l19.73-36.739H1490.7l-19.73,36.739Z" transform="translate(-1441.691 -505.291)"/><path class="b" d="M1436.149,505.351h-9.793L1451,550.9h9.793Z" transform="translate(-1426.355 -505.291)"/><path class="b" d="M1536.708,550.865h-8.428v-45.6h36.232a13.508,13.508,0,1,1,0,27.015H1539.39l4.567-8.365h20.554a5.143,5.143,0,1,0,0-10.285h-27.8Z" transform="translate(-1461.49 -505.26)"/><path class="b" d="M1652.507,523.91h-27.8v-5.143a5.168,5.168,0,0,1,5.182-5.142h27.493l4.526-8.365h-32.018a13.574,13.574,0,0,0-13.61,13.507v18.651a13.575,13.575,0,0,0,13.61,13.508h22.623a13.508,13.508,0,1,0,0-27.015Zm0,18.651h-22.623a5.168,5.168,0,0,1-5.182-5.143v-5.142h27.8a5.143,5.143,0,1,1,0,10.285Z" transform="translate(-1491.822 -505.26)"/></g></svg>