<svg xmlns="http://www.w3.org/2000/svg" width="42" height="42" viewBox="0 0 42 42"><defs><style>.a{fill:#f088b6;}</style></defs><g transform="translate(-16 -16)"><g transform="translate(16 16)"><path class="a" d="M217.79,25.46A8.345,8.345,0,0,1,223.73,23a.7.7,0,0,0,.626-1.013L222.063,17.4H231L228.7,21.987A.7.7,0,0,0,229.33,23a8.409,8.409,0,0,1,8.4,8.4v14a.7.7,0,0,0,.205.5l1.52,1.52a1.28,1.28,0,0,1-.905,2.185H221.63V51h16.92a2.68,2.68,0,0,0,1.9-4.575L239.13,45.11V31.4a9.814,9.814,0,0,0-8.7-9.739l2.324-4.648A.7.7,0,0,0,232.13,16h-11.2a.7.7,0,0,0-.626,1.013l2.324,4.648A9.726,9.726,0,0,0,216.8,24.47Z" transform="translate(-199.23 -16)"/><path class="a" d="M252.324,114.345a5.565,5.565,0,0,1,3.11-.945V112a6.96,6.96,0,0,0-3.89,1.183Z" transform="translate(-230.934 -103.6)"/><path class="a" d="M283.5,168v1.4h-.3a3.2,3.2,0,0,0-1.19,6.18l3.851,1.541a1.8,1.8,0,0,1-.67,3.48H283.2a1.806,1.806,0,0,1-1.8-1.8v-1H280v1a3.208,3.208,0,0,0,3.2,3.2h.3v1.4h1.4V182h.3a3.2,3.2,0,0,0,1.19-6.18l-3.851-1.541a1.8,1.8,0,0,1,.67-3.48h1.991a1.806,1.806,0,0,1,1.8,1.8v1h1.4v-1a3.208,3.208,0,0,0-3.2-3.2h-.3V168Z" transform="translate(-256.897 -154.7)"/><path class="a" d="M18.8,58H34.2A2.8,2.8,0,0,0,37,55.2V29.3a2.8,2.8,0,0,0-2.8-2.8H28.6V16.7a.7.7,0,0,0-1.013-.626l-1.087.543-1.087-.543a.7.7,0,0,0-.626,0l-1.087.543-1.087-.543a.7.7,0,0,0-.626,0l-1.087.543-1.087-.543A.7.7,0,0,0,18.8,16.7v9.8A2.8,2.8,0,0,0,16,29.3V55.2A2.8,2.8,0,0,0,18.8,58Zm1.4-40.167.387.193a.7.7,0,0,0,.626,0l1.087-.543,1.087.543a.7.7,0,0,0,.626,0l1.087-.543,1.087.543a.7.7,0,0,0,.626,0l.387-.193V27.9h-7ZM17.4,29.3a1.4,1.4,0,0,1,1.4-1.4v.7a.7.7,0,0,0,.7.7h8.4a.7.7,0,0,0,.7-.7v-.7h5.6a1.4,1.4,0,0,1,1.4,1.4V55.2a1.4,1.4,0,0,1-1.4,1.4H18.8a1.4,1.4,0,0,1-1.4-1.4Z" transform="translate(-16 -16)"/><path class="a" d="M48.7,356.2h2.8a.7.7,0,0,0,.7-.7v-2.8a.7.7,0,0,0-.7-.7H48.7a.7.7,0,0,0-.7.7v2.8A.7.7,0,0,0,48.7,356.2Zm.7-2.8h1.4v1.4H49.4Z" transform="translate(-45.2 -322.6)"/><path class="a" d="M115.5,352h-2.8a.7.7,0,0,0-.7.7v2.8a.7.7,0,0,0,.7.7h2.8a.7.7,0,0,0,.7-.7v-2.8A.7.7,0,0,0,115.5,352Zm-.7,2.8h-1.4v-1.4h1.4Z" transform="translate(-103.6 -322.6)"/><path class="a" d="M48.7,420.2h2.8a.7.7,0,0,0,.7-.7v-2.8a.7.7,0,0,0-.7-.7H48.7a.7.7,0,0,0-.7.7v2.8A.7.7,0,0,0,48.7,420.2Zm.7-2.8h1.4v1.4H49.4Z" transform="translate(-45.2 -381)"/><path class="a" d="M115.5,416h-2.8a.7.7,0,0,0-.7.7v2.8a.7.7,0,0,0,.7.7h2.8a.7.7,0,0,0,.7-.7v-2.8A.7.7,0,0,0,115.5,416Zm-.7,2.8h-1.4v-1.4h1.4Z" transform="translate(-103.6 -381)"/><path class="a" d="M179.5,352h-2.8a.7.7,0,0,0-.7.7v8.4a.7.7,0,0,0,.7.7h2.8a.7.7,0,0,0,.7-.7v-8.4A.7.7,0,0,0,179.5,352Zm-.7,8.4h-1.4v-7h1.4Z" transform="translate(-162 -322.6)"/><path class="a" d="M48.7,292.2h2.8a.7.7,0,0,0,.7-.7v-2.8a.7.7,0,0,0-.7-.7H48.7a.7.7,0,0,0-.7.7v2.8A.7.7,0,0,0,48.7,292.2Zm.7-2.8h1.4v1.4H49.4Z" transform="translate(-45.2 -264.2)"/><path class="a" d="M115.5,288h-2.8a.7.7,0,0,0-.7.7v2.8a.7.7,0,0,0,.7.7h2.8a.7.7,0,0,0,.7-.7v-2.8A.7.7,0,0,0,115.5,288Zm-.7,2.8h-1.4v-1.4h1.4Z" transform="translate(-103.6 -264.2)"/><path class="a" d="M179.5,288h-2.8a.7.7,0,0,0-.7.7v2.8a.7.7,0,0,0,.7.7h2.8a.7.7,0,0,0,.7-.7v-2.8A.7.7,0,0,0,179.5,288Zm-.7,2.8h-1.4v-1.4h1.4Z" transform="translate(-162 -264.2)"/><path class="a" d="M48.7,191h14a.7.7,0,0,0,.7-.7v-5.6a.7.7,0,0,0-.7-.7h-14a.7.7,0,0,0-.7.7v5.6A.7.7,0,0,0,48.7,191Zm.7-5.6H62v4.2H49.4Z" transform="translate(-45.2 -169.3)"/><rect class="a" width="2" height="2" transform="translate(14.184 17)"/><rect class="a" width="3" height="2" transform="translate(10.184 17)"/><rect class="a" width="1" height="2" transform="translate(8.184 17)"/><rect class="a" width="4" height="2" transform="translate(5.184 6)"/><rect class="a" width="4" height="1" transform="translate(5.184 3)"/><rect class="a" width="4" height="1" transform="translate(5.184 10)"/></g></g></svg>