<svg xmlns="http://www.w3.org/2000/svg" xmlns:xlink="http://www.w3.org/1999/xlink" width="802" height="1467" viewBox="0 0 802 1467"><defs><style>.a{fill:#fff;}.b{clip-path:url(#a);}.c{fill:#004796;}.d{fill:none;stroke:#e671a8;stroke-miterlimit:10;stroke-width:5px;}.e{fill:#5299d5;}.f{fill:#3fb1bb;}.g{fill:#5467ae;}.h{fill:#5467ad;}.i{fill:#3655a0;}.j{fill:#4ebbc5;}.k{fill:#e671a8;}.l{fill:#a4add8;}.m{fill:#8e9ed1;}</style><clipPath id="a"><rect class="a" width="802" height="1467" transform="translate(1118 304)"/></clipPath></defs><g class="b" transform="translate(-1118 -304)"><g transform="translate(-1303 184)"><path class="c" d="M803.033,406.122,501,581.641,197,406.125,499.029,230.605Z" transform="translate(2403.785 11.545)"/><path class="d" d="M684.523,960.926,112.336,1293.444-463.593,960.931,108.593,628.413Z" transform="translate(2893.033 -124.875)"/><path class="e" d="M995.751,392.145l-.358,126.221L318.314,911.841l.358-126.221Z" transform="translate(2397.863 3.659)"/><path class="f" d="M837.44,850.131l-.248,87.4L365.271,665.071l.248-87.4Z" transform="translate(2395.57 -5.398)"/><path class="g" d="M837.44,850.131l-.248,87.4L365.271,665.071l.248-87.4Z" transform="translate(2638.57 649.602)"/><path class="h" d="M216.385,730.751l.544-192,167.088,96.468-.544,192Z" transform="translate(2402.838 -3.498)"/><path class="h" d="M384.017,635.223,216.929,538.754l-.544,192L383.473,827.22l.544-192" transform="translate(2402.838 -3.498)"/><path class="i" d="M216.385,730.751l.544-192,167.088,96.468-.544,192Z" transform="translate(2402.838 -3.498)"/><path class="j" d="M216.385,730.751l.544-192,167.088,96.468-.544,192Z" transform="translate(2561.983 421.502)"/><path class="k" d="M877.946,780.542l.747-263.388L993.3,583.323l-.747,263.388Z" transform="translate(2152.543 327.556)"/><path class="l" d="M172.062,534.931l.774-273.1,83.544,48.234-.774,273.1Z" transform="translate(2405.002 10.02)"/><path class="l" d="M256.38,310.065l-83.544-48.234-.774,273.1,83.544,48.234.774-273.1" transform="translate(2405.002 10.02)"/><path class="m" d="M172.062,534.931l.774-273.1,83.544,48.234-.774,273.1Z" transform="translate(2405.002 10.02)"/><circle class="k" cx="51.474" cy="51.474" r="51.474" transform="translate(2951.947 452.031)"/><path class="f" d="M693.384,190,541.957,278l-152.417-88,151.427-88Z" transform="translate(2394.385 17.823)"/></g></g></svg>