<svg xmlns="http://www.w3.org/2000/svg" xmlns:xlink="http://www.w3.org/1999/xlink" width="122" height="123" viewBox="0 0 122 123"><defs><style>.a{fill:url(#a);}.b{fill:#fff;}.c{fill:#5467ae;font-size:18px;font-family:IBMPlexSans-SemiBold, IBM Plex Sans;font-weight:600;}.d{filter:url(#b);}</style><linearGradient id="a" x1="0.157" y1="0.055" x2="0.925" y2="1" gradientUnits="objectBoundingBox"><stop offset="0" stop-color="#0157a5"/><stop offset="1" stop-color="#4ebbc5"/></linearGradient><filter id="b" x="60" y="0" width="62" height="62" filterUnits="userSpaceOnUse"><feOffset dy="5" input="SourceAlpha"/><feGaussianBlur stdDeviation="5" result="c"/><feFlood flood-color="#5467ae" flood-opacity="0.2"/><feComposite operator="in" in2="c"/><feComposite in="SourceGraphic"/></filter></defs><g transform="translate(-441 -3041)"><circle class="a" cx="56.5" cy="56.5" r="56.5" transform="translate(441 3051)"/><g class="d" transform="matrix(1, 0, 0, 1, 441, 3041)"><circle class="b" cx="16" cy="16" r="16" transform="translate(75 10)"/></g><text class="c" transform="translate(532 3073)"><tspan x="-5.4" y="0">2</tspan></text><g transform="translate(470.84 3082.8)"><g transform="translate(-1.84 4.2)"><path class="b" d="M-.2,4.2V53.247H56.66V4.2ZM55.358,5.5v5.382H1.1V5.5ZM1.1,52.032V12.186H55.358V51.945H1.1Z" transform="translate(0.2 -4.2)"/><rect class="b" width="1.302" height="1.302" transform="translate(46.269 3.386)"/><rect class="b" width="1.302" height="1.302" transform="translate(49.568 3.386)"/><rect class="b" width="1.302" height="1.302" transform="translate(42.97 3.386)"/><rect class="b" width="33.421" height="1.302" transform="translate(5.469 3.386)"/><path class="b" d="M4.3,29.014H53.347V16.6H4.3ZM31.645,22.85l20.4-4.774v9.549ZM47.01,27.712H10.55l18.23-4.254ZM28.78,22.156,10.55,17.9H47.01Zm-2.865.694L5.6,27.538V17.989Z" transform="translate(-0.394 -5.836)"/><path class="b" d="M4.3,41.845h6.945V34.9H4.3ZM5.6,36.2h4.34v4.34H5.6Z" transform="translate(-0.394 -8.25)"/><rect class="b" width="6.511" height="1.302" transform="translate(13.021 27.779)"/><rect class="b" width="10.851" height="1.302" transform="translate(13.021 31.164)"/><path class="b" d="M4.3,53.345h6.945V46.4H4.3ZM5.6,47.7h4.34v4.34H5.6Z" transform="translate(-0.394 -9.767)"/><rect class="b" width="6.511" height="1.302" transform="translate(13.021 37.762)"/><rect class="b" width="10.851" height="1.302" transform="translate(13.021 41.147)"/><rect class="b" width="17.622" height="1.302" transform="translate(35.331 26.65)"/><rect class="b" width="20.4" height="1.302" transform="translate(32.553 31.859)"/><rect class="b" width="13.455" height="1.302" transform="translate(39.498 37.067)"/><rect class="b" width="20.4" height="1.302" transform="translate(32.553 42.276)"/></g></g></g></svg>