<svg xmlns="http://www.w3.org/2000/svg" xmlns:xlink="http://www.w3.org/1999/xlink" width="122" height="123" viewBox="0 0 122 123"><defs><style>.a{fill:url(#a);}.b{fill:#fff;}.c{fill:#5467ae;font-size:18px;font-family:IBMPlexSans-SemiBold, IBM Plex Sans;font-weight:600;}.d{filter:url(#b);}</style><linearGradient id="a" x1="0.157" y1="0.055" x2="0.925" y2="1" gradientUnits="objectBoundingBox"><stop offset="0" stop-color="#0157a5"/><stop offset="1" stop-color="#4ebbc5"/></linearGradient><filter id="b" x="60" y="0" width="62" height="62" filterUnits="userSpaceOnUse"><feOffset dy="5" input="SourceAlpha"/><feGaussianBlur stdDeviation="5" result="c"/><feFlood flood-color="#5467ae" flood-opacity="0.2"/><feComposite operator="in" in2="c"/><feComposite in="SourceGraphic"/></filter></defs><g transform="translate(-441 -3041)"><circle class="a" cx="56.5" cy="56.5" r="56.5" transform="translate(441 3051)"/><g class="d" transform="matrix(1, 0, 0, 1, 441, 3041)"><circle class="b" cx="16" cy="16" r="16" transform="translate(75 10)"/></g><text class="c" transform="translate(532 3073)"><tspan x="-5.4" y="0">1</tspan></text><g transform="translate(-1792 -3965.566)"><g transform="translate(2275.148 7055.994)"><rect class="b" width="13.693" height="1.39" transform="translate(0 0)"/><rect class="b" width="27.388" height="1.39" transform="translate(0 5.422)"/><rect class="b" width="27.388" height="1.39" transform="translate(0 10.843)"/><rect class="b" width="27.388" height="1.39" transform="translate(0 16.265)"/><rect class="b" width="27.388" height="1.39" transform="translate(0 21.687)"/><rect class="b" width="27.388" height="1.39" transform="translate(0 21.687)"/><rect class="b" width="27.388" height="1.39" transform="translate(0 27.109)"/><rect class="b" width="27.388" height="1.39" transform="translate(0 32.531)"/><rect class="b" width="9.245" height="1.39" transform="translate(9.245 37.952)"/></g><path class="b" d="M21.2,81.129h6.411l-2.46,2.46,1.061,1.062,3.742-3.742V79.553l-3.742-3.742-1.061,1.061,2.46,2.46H21.2" transform="translate(2243.972 7019.786)"/><path class="b" d="M58.064,5.083H27.109a4.037,4.037,0,0,0-4.032,4.032V48.55H19.032A4.037,4.037,0,0,0,15,52.582v9.036a4.036,4.036,0,0,0,4.032,4.032h9.037A4.036,4.036,0,0,0,32.1,61.618v-1.2H58.064A4.036,4.036,0,0,0,62.1,56.382V9.115A4.037,4.037,0,0,0,58.064,5.083ZM30.71,61.618a2.645,2.645,0,0,1-2.641,2.642H19.032a2.644,2.644,0,0,1-2.641-2.642V52.582a2.644,2.644,0,0,1,2.641-2.641h9.037a2.644,2.644,0,0,1,2.641,2.641v9.036Zm30-5.236a2.644,2.644,0,0,1-2.641,2.641H32.1V52.583a4.036,4.036,0,0,0-4.032-4.032h-3.6V9.115a2.645,2.645,0,0,1,2.641-2.641H58.064A2.644,2.644,0,0,1,60.7,9.115Z" transform="translate(2246 7042.917)"/></g></g></svg>