<svg xmlns="http://www.w3.org/2000/svg" width="42.055" height="42.055" viewBox="0 0 42.055 42.055"><defs><style>.a{fill:#fff;}</style></defs><path class="a" d="M24.846,835.173a1.8,1.8,0,0,1-1.8-1.8,15.369,15.369,0,0,0-13.593-15.28,1.8,1.8,0,0,1,.415-3.573,18.965,18.965,0,0,1,16.775,18.853,1.8,1.8,0,0,1-1.8,1.8m-6.393,0a1.8,1.8,0,0,1-1.8-1.8,8.991,8.991,0,0,0-7.322-8.837A1.8,1.8,0,1,1,9.993,821,12.587,12.587,0,0,1,20.25,833.375a1.8,1.8,0,0,1-1.8,1.8M7.6,839.568a6.259,6.259,0,0,1-6.261-6.194V822.983a1.818,1.818,0,0,1,3.636,0v10.393a2.633,2.633,0,0,0,5.266,0,2.583,2.583,0,0,0-1.405-2.316,1.8,1.8,0,0,1,1.65-3.2,6.147,6.147,0,0,1,3.34,5.516A6.228,6.228,0,0,1,7.6,839.568m4.435-32.4A21.028,21.028,0,1,0,33.059,828.2a21.027,21.027,0,0,0-21.027-21.027" transform="translate(8.996 -807.172)"/></svg>