<svg xmlns="http://www.w3.org/2000/svg" width="44" height="41.756" viewBox="0 0 44 41.756"><defs><style>.a{fill:#f088b6;}</style></defs><g transform="translate(-9 -10)"><path class="a" d="M52.791,17.412,48.2,13.758a.441.441,0,0,0-.313-.1H36.193L16.934,10a.628.628,0,0,0-.418.1L9.731,14.28a.542.542,0,0,0-.209.418v3.132a.493.493,0,0,0,.522.522h4.176l.052,32.361H9.522a.522.522,0,1,0,0,1.044H51.278a.522.522,0,1,0,0-1.044H49.712V49.146a.493.493,0,0,0-.522-.522H48.146v-12a.522.522,0,0,0-1.044,0v5.219H41.361V40.795a.522.522,0,1,0-1.044,0v1.044H27.79v-16.7a.522.522,0,0,0-1.044,0V48.624H25.7a.493.493,0,0,0-.522.522v1.566H19.439V18.351H35.1v2.088a.493.493,0,0,0,.522.522h1.044v3.132h-.522a.493.493,0,0,0-.522.522.474.474,0,0,0,.157.365l1.931,1.931v1.618a.261.261,0,1,1-.522,0v-.261a.522.522,0,1,0-1.044,0v.261a1.417,1.417,0,0,0,.313.887L33.688,31.5h0a3992.234,3992.234,0,0,0-.1.209c0,.052,0,.052-.052.1v6.942a.493.493,0,0,0,.522.522h6.785a.493.493,0,0,0,.522-.522V31.765c0-.052,0-.052-.052-.1,0-.052-.052-.052-.052-.1s-.052-.052-.052-.1h0l-2.766-2.088a1.317,1.317,0,0,0,.313-.887V26.859l1.931-1.931a.5.5,0,0,0,0-.731.754.754,0,0,0-.365-.1h-.522V20.961h1.044a.493.493,0,0,0,.522-.522V18.351H52.478A.493.493,0,0,0,53,17.829.475.475,0,0,0,52.791,17.412ZM47.1,42.883v5.741H41.361V42.883Zm-6.785,5.741H34.575V42.883h5.741ZM27.79,42.883h5.741v5.741H27.79Zm-1.566,6.785H48.668v1.044H26.224ZM18.4,28.842l-2.766-2.766L18.4,23.31Zm0,7.829-2.766-2.766L18.4,31.139Zm-.313,1.2L15.263,40.69V35.053Zm-2.819-5.011V27.224l2.819,2.819Zm0-7.829V19.4l2.819,2.819Zm0-9.813H18.4v2.088H15.263Zm.313-1.044,1.253-2.505,1.253,2.505Zm-1.3.313h0a.314.314,0,0,0-.052.209h0v1.879l-2.349-2.3c-.052,0-.052-.052-.1-.052l3.81-2.349Zm1.044,28.394L18.134,45.7l-2.766,2.766Zm.313-1.1L18.4,39.02V44.5Zm.1-23.435H18.4v2.662ZM19.439,14.7a.314.314,0,0,0-.052-.209h0l-1.618-3.236,12.788,2.4H23.3a.56.56,0,0,0-.313.1l-3.549,2.975Zm-8.873,2.61V15.219H11.3l2.14,2.088Zm4.75,33.4h0v-.783L18.4,46.849v3.862Zm22.13-20.721L39.325,31.4H35.619Zm2.871,8.195H34.575V32.444h5.741ZM38.229,25.972l-.835-.835h1.67Zm.522-1.879H37.707V20.961h1.044Zm1.566-4.176H36.141V18.351h4.176Zm-19.938-2.61L23.51,14.7H47.728l3.288,2.61Z"/><path class="a" d="M50.132,75h-2.61a.493.493,0,0,0-.522.522v2.61a.493.493,0,0,0,.522.522h2.61a.493.493,0,0,0,.522-.522v-2.61A.493.493,0,0,0,50.132,75Zm-.522,2.61H48.044V76.044H49.61Z" transform="translate(-18.166 -31.074)"/></g></svg>