<svg xmlns="http://www.w3.org/2000/svg" width="44" height="42.533" viewBox="0 0 44 42.533"><defs><style>.a{fill:#f088b6;}</style></defs><g transform="translate(-2 -4)"><g transform="translate(2 4)"><path class="a" d="M43.8,15.733H42.333V10.6a2.2,2.2,0,0,0-2.2-2.2H19.6V6.2A2.2,2.2,0,0,0,17.4,4H4.2A2.2,2.2,0,0,0,2,6.2V15a2.2,2.2,0,0,0,2.2,2.2H5.667v4.4H4.933a2.2,2.2,0,0,0-2.2,2.2v5.867a2.2,2.2,0,0,0,2.2,2.2h.733v3.667a2.2,2.2,0,0,0,2.2,2.2H20.333v4.4H17.4a.733.733,0,0,0-.733.733V45.8a.733.733,0,0,0,.733.733H30.6a.733.733,0,0,0,.733-.733V42.867a.733.733,0,0,0-.733-.733H27.667v-4.4H40.133a2.2,2.2,0,0,0,2.2-2.2v-6.6H43.8a2.2,2.2,0,0,0,2.2-2.2v-8.8A2.2,2.2,0,0,0,43.8,15.733ZM40.133,9.867a.734.734,0,0,1,.733.733v5.133H39.4V12.067a.733.733,0,0,0-.733-.733H19.6V9.867ZM32.067,28.933h5.867v4.4H10.067V31.867h3.667a2.2,2.2,0,0,0,2.2-2.2V23.8a2.2,2.2,0,0,0-2.2-2.2H10.067V17.2H17.4A2.2,2.2,0,0,0,19.6,15V12.8H37.933v2.933H32.067a2.2,2.2,0,0,0-2.2,2.2v8.8A2.2,2.2,0,0,0,32.067,28.933ZM3.467,15V6.2A.734.734,0,0,1,4.2,5.467H17.4a.734.734,0,0,1,.733.733V15a.734.734,0,0,1-.733.733H4.2A.734.734,0,0,1,3.467,15Zm3.667,2.2H8.6v4.4H7.133ZM4.2,29.667V23.8a.734.734,0,0,1,.733-.733h8.8a.734.734,0,0,1,.733.733v5.867a.734.734,0,0,1-.733.733h-8.8A.734.734,0,0,1,4.2,29.667Zm25.667,15.4H18.133V43.6H29.867ZM26.2,42.133H21.8v-4.4h4.4Zm14.667-6.6a.734.734,0,0,1-.733.733H7.867a.734.734,0,0,1-.733-.733V31.867H8.6v2.2a.733.733,0,0,0,.733.733H38.667a.733.733,0,0,0,.733-.733V28.933h1.467Zm3.667-8.8a.734.734,0,0,1-.733.733H32.067a.734.734,0,0,1-.733-.733v-8.8a.734.734,0,0,1,.733-.733H43.8a.734.734,0,0,1,.733.733Z" transform="translate(-2 -4)"/><rect class="a" width="12" height="2" transform="translate(3 2.533)"/><rect class="a" width="12" height="2" transform="translate(3 5.533)"/><rect class="a" width="12" height="2" transform="translate(3 8.533)"/><rect class="a" width="10" height="2" transform="translate(31 14.533)"/><rect class="a" width="10" height="2" transform="translate(31 17.533)"/><rect class="a" width="10" height="1" transform="translate(31 20.533)"/><rect class="a" width="7" height="1" transform="translate(4 20.533)"/><rect class="a" width="7" height="1" transform="translate(4 23.533)"/></g></g></svg>