<svg xmlns="http://www.w3.org/2000/svg" width="75.784" height="75.784" viewBox="0 0 75.784 75.784"><defs><style>.a{fill:#f088b6;}</style></defs><path class="a" d="M218.587,33.07A15.057,15.057,0,0,1,229.3,28.631a1.263,1.263,0,0,0,1.13-1.828L226.3,18.526h16.122L238.279,26.8a1.263,1.263,0,0,0,1.13,1.828,15.174,15.174,0,0,1,15.157,15.157V69.049a1.263,1.263,0,0,0,.37.893l2.742,2.742a2.309,2.309,0,0,1-1.633,3.943h-30.53v2.526h30.53a4.836,4.836,0,0,0,3.419-8.255l-2.372-2.373V43.787A17.708,17.708,0,0,0,241.4,26.215l4.194-8.388A1.263,1.263,0,0,0,244.461,16H224.252a1.263,1.263,0,0,0-1.13,1.828l4.193,8.387A17.549,17.549,0,0,0,216.8,31.283Z" transform="translate(-185.097 -16)"/><path class="a" d="M252.951,116.231a10.041,10.041,0,0,1,5.612-1.705V112a12.559,12.559,0,0,0-7.019,2.134Z" transform="translate(-214.356 -96.843)"/><path class="a" d="M286.313,168v2.526h-.533a5.782,5.782,0,0,0-2.147,11.15l6.949,2.78a3.256,3.256,0,0,1-1.209,6.279h-3.593a3.259,3.259,0,0,1-3.256-3.256v-1.8H280v1.8a5.789,5.789,0,0,0,5.782,5.782h.533v2.526h2.526v-2.526h.533a5.782,5.782,0,0,0,2.147-11.15l-6.949-2.78a3.256,3.256,0,0,1,1.209-6.279h3.593a3.26,3.26,0,0,1,3.256,3.256v1.8h2.526v-1.8a5.789,5.789,0,0,0-5.782-5.782h-.533V168Z" transform="translate(-238.316 -144.002)"/><path class="a" d="M21.052,91.784H48.84a5.058,5.058,0,0,0,5.052-5.052V40a5.058,5.058,0,0,0-5.052-5.052h-10.1V17.263a1.263,1.263,0,0,0-1.828-1.13l-1.961.981-1.961-.981a1.263,1.263,0,0,0-1.13,0l-1.961.981-1.961-.981a1.263,1.263,0,0,0-1.13,0l-1.961.981-1.961-.981a1.263,1.263,0,0,0-1.828,1.13V34.946A5.058,5.058,0,0,0,16,40V86.732a5.058,5.058,0,0,0,5.052,5.052Zm2.526-72.477.7.349a1.263,1.263,0,0,0,1.13,0l1.961-.981,1.961.981a1.263,1.263,0,0,0,1.13,0l1.961-.981,1.961.981a1.263,1.263,0,0,0,1.13,0l.7-.349V37.472H23.578ZM18.526,40a2.529,2.529,0,0,1,2.526-2.526v1.263A1.263,1.263,0,0,0,22.315,40H37.472a1.263,1.263,0,0,0,1.263-1.263V37.472h10.1A2.529,2.529,0,0,1,51.366,40V86.732a2.529,2.529,0,0,1-2.526,2.526H21.052a2.529,2.529,0,0,1-2.526-2.526Z" transform="translate(-16 -16)"/><path class="a" d="M49.263,359.578h5.052a1.263,1.263,0,0,0,1.263-1.263v-5.052A1.263,1.263,0,0,0,54.315,352H49.263A1.263,1.263,0,0,0,48,353.263v5.052A1.263,1.263,0,0,0,49.263,359.578Zm1.263-5.052h2.526v2.526H50.526Z" transform="translate(-42.948 -298.951)"/><path class="a" d="M118.315,352h-5.052A1.263,1.263,0,0,0,112,353.263v5.052a1.263,1.263,0,0,0,1.263,1.263h5.052a1.263,1.263,0,0,0,1.263-1.263v-5.052A1.263,1.263,0,0,0,118.315,352Zm-1.263,5.052h-2.526v-2.526h2.526Z" transform="translate(-96.843 -298.951)"/><path class="a" d="M49.263,423.578h5.052a1.263,1.263,0,0,0,1.263-1.263v-5.052A1.263,1.263,0,0,0,54.315,416H49.263A1.263,1.263,0,0,0,48,417.263v5.052A1.263,1.263,0,0,0,49.263,423.578Zm1.263-5.052h2.526v2.526H50.526Z" transform="translate(-42.948 -352.847)"/><path class="a" d="M118.315,416h-5.052A1.263,1.263,0,0,0,112,417.263v5.052a1.263,1.263,0,0,0,1.263,1.263h5.052a1.263,1.263,0,0,0,1.263-1.263v-5.052A1.263,1.263,0,0,0,118.315,416Zm-1.263,5.052h-2.526v-2.526h2.526Z" transform="translate(-96.843 -352.847)"/><path class="a" d="M182.315,352h-5.052A1.263,1.263,0,0,0,176,353.263V368.42a1.263,1.263,0,0,0,1.263,1.263h5.052a1.263,1.263,0,0,0,1.263-1.263V353.263A1.263,1.263,0,0,0,182.315,352Zm-1.263,15.157h-2.526V354.526h2.526Z" transform="translate(-150.739 -298.951)"/><path class="a" d="M49.263,295.578h5.052a1.263,1.263,0,0,0,1.263-1.263v-5.052A1.263,1.263,0,0,0,54.315,288H49.263A1.263,1.263,0,0,0,48,289.263v5.052A1.263,1.263,0,0,0,49.263,295.578Zm1.263-5.052h2.526v2.526H50.526Z" transform="translate(-42.948 -245.056)"/><path class="a" d="M118.315,288h-5.052A1.263,1.263,0,0,0,112,289.263v5.052a1.263,1.263,0,0,0,1.263,1.263h5.052a1.263,1.263,0,0,0,1.263-1.263v-5.052A1.263,1.263,0,0,0,118.315,288Zm-1.263,5.052h-2.526v-2.526h2.526Z" transform="translate(-96.843 -245.056)"/><path class="a" d="M182.315,288h-5.052A1.263,1.263,0,0,0,176,289.263v5.052a1.263,1.263,0,0,0,1.263,1.263h5.052a1.263,1.263,0,0,0,1.263-1.263v-5.052A1.263,1.263,0,0,0,182.315,288Zm-1.263,5.052h-2.526v-2.526h2.526Z" transform="translate(-150.739 -245.056)"/><path class="a" d="M49.263,196.631H74.524a1.263,1.263,0,0,0,1.263-1.263v-10.1A1.263,1.263,0,0,0,74.524,184H49.263A1.263,1.263,0,0,0,48,185.263v10.1A1.263,1.263,0,0,0,49.263,196.631Zm1.263-10.1H73.261V194.1H50.526Z" transform="translate(-42.948 -157.476)"/><rect class="a" width="2" height="3" transform="translate(25 31.484)"/><rect class="a" width="3" height="3" transform="translate(20 31.484)"/><rect class="a" width="3" height="3" transform="translate(15 31.484)"/><rect class="a" width="8" height="2" transform="translate(10 11.484)"/><rect class="a" width="8" height="3" transform="translate(10 6.484)"/><rect class="a" width="8" height="3" transform="translate(10 16.484)"/></svg>